<mxfile host="app.diagrams.net" modified="2023-04-11T20:29:54.929Z" agent="Mozilla/5.0 (Windows NT 10.0; Win64; x64) AppleWebKit/537.36 (KHTML, like Gecko) Chrome/110.0.0.0 Safari/537.36 OPR/96.0.0.0 (Edition std-1)" etag="HilTzXM8whDoBuMuCYXO" version="21.1.1" type="device">
  <diagram id="C5RBs43oDa-KdzZeNtuy" name="Page-1">
    <mxGraphModel dx="2970" dy="4673" grid="1" gridSize="10" guides="1" tooltips="1" connect="1" arrows="1" fold="1" page="1" pageScale="1" pageWidth="827" pageHeight="1169" math="0" shadow="0">
      <root>
        <mxCell id="WIyWlLk6GJQsqaUBKTNV-0" />
        <mxCell id="WIyWlLk6GJQsqaUBKTNV-1" parent="WIyWlLk6GJQsqaUBKTNV-0" />
        <mxCell id="M1MSdD-5XBLC1a_fBFbh-7" value="&lt;i&gt;Component&lt;/i&gt;" style="swimlane;fontStyle=1;align=center;verticalAlign=top;childLayout=stackLayout;horizontal=1;startSize=26;horizontalStack=0;resizeParent=1;resizeParentMax=0;resizeLast=0;collapsible=1;marginBottom=0;whiteSpace=wrap;html=1;" parent="WIyWlLk6GJQsqaUBKTNV-1" vertex="1">
          <mxGeometry x="2690" y="-880" width="330" height="244" as="geometry" />
        </mxCell>
        <mxCell id="M1MSdD-5XBLC1a_fBFbh-8" value="# game_object: std::shared_ptr&amp;lt;GameObject&amp;gt;" style="text;strokeColor=none;fillColor=none;align=left;verticalAlign=top;spacingLeft=4;spacingRight=4;overflow=hidden;rotatable=0;points=[[0,0.5],[1,0.5]];portConstraint=eastwest;whiteSpace=wrap;html=1;" parent="M1MSdD-5XBLC1a_fBFbh-7" vertex="1">
          <mxGeometry y="26" width="330" height="26" as="geometry" />
        </mxCell>
        <mxCell id="aINS2mB82579GO8eByzE-0" value="- is_active: bool" style="text;strokeColor=none;fillColor=none;align=left;verticalAlign=top;spacingLeft=4;spacingRight=4;overflow=hidden;rotatable=0;points=[[0,0.5],[1,0.5]];portConstraint=eastwest;whiteSpace=wrap;html=1;" parent="M1MSdD-5XBLC1a_fBFbh-7" vertex="1">
          <mxGeometry y="52" width="330" height="26" as="geometry" />
        </mxCell>
        <mxCell id="M1MSdD-5XBLC1a_fBFbh-9" value="" style="line;strokeWidth=1;fillColor=none;align=left;verticalAlign=middle;spacingTop=-1;spacingLeft=3;spacingRight=3;rotatable=0;labelPosition=right;points=[];portConstraint=eastwest;strokeColor=inherit;" parent="M1MSdD-5XBLC1a_fBFbh-7" vertex="1">
          <mxGeometry y="78" width="330" height="8" as="geometry" />
        </mxCell>
        <mxCell id="M1MSdD-5XBLC1a_fBFbh-10" value="+ Component(std::shared_ptr&amp;lt;GameObject&amp;gt;): constructor" style="text;strokeColor=none;fillColor=none;align=left;verticalAlign=top;spacingLeft=4;spacingRight=4;overflow=hidden;rotatable=0;points=[[0,0.5],[1,0.5]];portConstraint=eastwest;whiteSpace=wrap;html=1;" parent="M1MSdD-5XBLC1a_fBFbh-7" vertex="1">
          <mxGeometry y="86" width="330" height="26" as="geometry" />
        </mxCell>
        <mxCell id="M1MSdD-5XBLC1a_fBFbh-123" value="+ GetGameObject(): std::shared_ptr&amp;lt;GameObject&amp;gt;" style="text;strokeColor=none;fillColor=none;align=left;verticalAlign=top;spacingLeft=4;spacingRight=4;overflow=hidden;rotatable=0;points=[[0,0.5],[1,0.5]];portConstraint=eastwest;whiteSpace=wrap;html=1;" parent="M1MSdD-5XBLC1a_fBFbh-7" vertex="1">
          <mxGeometry y="112" width="330" height="26" as="geometry" />
        </mxCell>
        <mxCell id="FnCDFKwJpO0uUA8LM9jn-20" value="+ { virtual } Startable(): bool" style="text;strokeColor=none;fillColor=none;align=left;verticalAlign=top;spacingLeft=4;spacingRight=4;overflow=hidden;rotatable=0;points=[[0,0.5],[1,0.5]];portConstraint=eastwest;whiteSpace=wrap;html=1;" parent="M1MSdD-5XBLC1a_fBFbh-7" vertex="1">
          <mxGeometry y="138" width="330" height="26" as="geometry" />
        </mxCell>
        <mxCell id="F8VIh5NcbDrvzz-t5l7X-1" value="+ { virtual } Updatable(): bool" style="text;strokeColor=none;fillColor=none;align=left;verticalAlign=top;spacingLeft=4;spacingRight=4;overflow=hidden;rotatable=0;points=[[0,0.5],[1,0.5]];portConstraint=eastwest;whiteSpace=wrap;html=1;" parent="M1MSdD-5XBLC1a_fBFbh-7" vertex="1">
          <mxGeometry y="164" width="330" height="26" as="geometry" />
        </mxCell>
        <mxCell id="KMpKYzbZWhltmwKOfllN-35" value="+ { virtual } Start(): void" style="text;strokeColor=none;fillColor=none;align=left;verticalAlign=top;spacingLeft=4;spacingRight=4;overflow=hidden;rotatable=0;points=[[0,0.5],[1,0.5]];portConstraint=eastwest;whiteSpace=wrap;html=1;" parent="M1MSdD-5XBLC1a_fBFbh-7" vertex="1">
          <mxGeometry y="190" width="330" height="26" as="geometry" />
        </mxCell>
        <mxCell id="M1MSdD-5XBLC1a_fBFbh-22" value="+ { virtual } Update(): void" style="text;strokeColor=none;fillColor=none;align=left;verticalAlign=top;spacingLeft=4;spacingRight=4;overflow=hidden;rotatable=0;points=[[0,0.5],[1,0.5]];portConstraint=eastwest;whiteSpace=wrap;html=1;" parent="M1MSdD-5XBLC1a_fBFbh-7" vertex="1">
          <mxGeometry y="216" width="330" height="28" as="geometry" />
        </mxCell>
        <mxCell id="M1MSdD-5XBLC1a_fBFbh-35" value="&lt;i&gt;Scene&lt;/i&gt;" style="swimlane;fontStyle=1;align=center;verticalAlign=top;childLayout=stackLayout;horizontal=1;startSize=26;horizontalStack=0;resizeParent=1;resizeParentMax=0;resizeLast=0;collapsible=1;marginBottom=0;whiteSpace=wrap;html=1;" parent="WIyWlLk6GJQsqaUBKTNV-1" vertex="1">
          <mxGeometry x="552.5" y="-880" width="340" height="268" as="geometry" />
        </mxCell>
        <mxCell id="KMpKYzbZWhltmwKOfllN-28" value="# component_registry: std::shared_ptr&amp;lt;ComponentRegistry&amp;gt;" style="text;strokeColor=none;fillColor=none;align=left;verticalAlign=top;spacingLeft=4;spacingRight=4;overflow=hidden;rotatable=0;points=[[0,0.5],[1,0.5]];portConstraint=eastwest;whiteSpace=wrap;html=1;" parent="M1MSdD-5XBLC1a_fBFbh-35" vertex="1">
          <mxGeometry y="26" width="340" height="26" as="geometry" />
        </mxCell>
        <mxCell id="FnCDFKwJpO0uUA8LM9jn-31" value="# camera: MainCamera" style="text;strokeColor=none;fillColor=none;align=left;verticalAlign=top;spacingLeft=4;spacingRight=4;overflow=hidden;rotatable=0;points=[[0,0.5],[1,0.5]];portConstraint=eastwest;whiteSpace=wrap;html=1;" parent="M1MSdD-5XBLC1a_fBFbh-35" vertex="1">
          <mxGeometry y="52" width="340" height="26" as="geometry" />
        </mxCell>
        <mxCell id="M1MSdD-5XBLC1a_fBFbh-37" value="" style="line;strokeWidth=1;fillColor=none;align=left;verticalAlign=middle;spacingTop=-1;spacingLeft=3;spacingRight=3;rotatable=0;labelPosition=right;points=[];portConstraint=eastwest;strokeColor=inherit;" parent="M1MSdD-5XBLC1a_fBFbh-35" vertex="1">
          <mxGeometry y="78" width="340" height="8" as="geometry" />
        </mxCell>
        <mxCell id="M1MSdD-5XBLC1a_fBFbh-38" value="# Scene(): constructor" style="text;strokeColor=none;fillColor=none;align=left;verticalAlign=top;spacingLeft=4;spacingRight=4;overflow=hidden;rotatable=0;points=[[0,0.5],[1,0.5]];portConstraint=eastwest;whiteSpace=wrap;html=1;" parent="M1MSdD-5XBLC1a_fBFbh-35" vertex="1">
          <mxGeometry y="86" width="340" height="26" as="geometry" />
        </mxCell>
        <mxCell id="OVnKnol72kGfrmUa5j2k-6" value="# StopAllSounds(): void" style="text;strokeColor=none;fillColor=none;align=left;verticalAlign=top;spacingLeft=4;spacingRight=4;overflow=hidden;rotatable=0;points=[[0,0.5],[1,0.5]];portConstraint=eastwest;whiteSpace=wrap;html=1;" parent="M1MSdD-5XBLC1a_fBFbh-35" vertex="1">
          <mxGeometry y="112" width="340" height="26" as="geometry" />
        </mxCell>
        <mxCell id="F8VIh5NcbDrvzz-t5l7X-29" value="+ Components_Start(): void" style="text;strokeColor=none;fillColor=none;align=left;verticalAlign=top;spacingLeft=4;spacingRight=4;overflow=hidden;rotatable=0;points=[[0,0.5],[1,0.5]];portConstraint=eastwest;whiteSpace=wrap;html=1;" parent="M1MSdD-5XBLC1a_fBFbh-35" vertex="1">
          <mxGeometry y="138" width="340" height="26" as="geometry" />
        </mxCell>
        <mxCell id="F8VIh5NcbDrvzz-t5l7X-30" value="+ Components_Update(): void" style="text;strokeColor=none;fillColor=none;align=left;verticalAlign=top;spacingLeft=4;spacingRight=4;overflow=hidden;rotatable=0;points=[[0,0.5],[1,0.5]];portConstraint=eastwest;whiteSpace=wrap;html=1;" parent="M1MSdD-5XBLC1a_fBFbh-35" vertex="1">
          <mxGeometry y="164" width="340" height="26" as="geometry" />
        </mxCell>
        <mxCell id="KMpKYzbZWhltmwKOfllN-43" value="+ { virtual } Load(): void" style="text;strokeColor=none;fillColor=none;align=left;verticalAlign=top;spacingLeft=4;spacingRight=4;overflow=hidden;rotatable=0;points=[[0,0.5],[1,0.5]];portConstraint=eastwest;whiteSpace=wrap;html=1;" parent="M1MSdD-5XBLC1a_fBFbh-35" vertex="1">
          <mxGeometry y="190" width="340" height="26" as="geometry" />
        </mxCell>
        <mxCell id="M1MSdD-5XBLC1a_fBFbh-42" value="+ { virtual }&amp;nbsp;Update(): void" style="text;strokeColor=none;fillColor=none;align=left;verticalAlign=top;spacingLeft=4;spacingRight=4;overflow=hidden;rotatable=0;points=[[0,0.5],[1,0.5]];portConstraint=eastwest;whiteSpace=wrap;html=1;" parent="M1MSdD-5XBLC1a_fBFbh-35" vertex="1">
          <mxGeometry y="216" width="340" height="26" as="geometry" />
        </mxCell>
        <mxCell id="M1MSdD-5XBLC1a_fBFbh-43" value="+ { abstract }&amp;nbsp;Unload(): void" style="text;strokeColor=none;fillColor=none;align=left;verticalAlign=top;spacingLeft=4;spacingRight=4;overflow=hidden;rotatable=0;points=[[0,0.5],[1,0.5]];portConstraint=eastwest;whiteSpace=wrap;html=1;" parent="M1MSdD-5XBLC1a_fBFbh-35" vertex="1">
          <mxGeometry y="242" width="340" height="26" as="geometry" />
        </mxCell>
        <mxCell id="M1MSdD-5XBLC1a_fBFbh-49" value="Scene_Level1" style="swimlane;fontStyle=1;align=center;verticalAlign=top;childLayout=stackLayout;horizontal=1;startSize=26;horizontalStack=0;resizeParent=1;resizeParentMax=0;resizeLast=0;collapsible=1;marginBottom=0;whiteSpace=wrap;html=1;" parent="WIyWlLk6GJQsqaUBKTNV-1" vertex="1">
          <mxGeometry x="40" y="-2290" width="165" height="138" as="geometry" />
        </mxCell>
        <mxCell id="M1MSdD-5XBLC1a_fBFbh-50" value="- ?" style="text;strokeColor=none;fillColor=none;align=left;verticalAlign=top;spacingLeft=4;spacingRight=4;overflow=hidden;rotatable=0;points=[[0,0.5],[1,0.5]];portConstraint=eastwest;whiteSpace=wrap;html=1;" parent="M1MSdD-5XBLC1a_fBFbh-49" vertex="1">
          <mxGeometry y="26" width="165" height="26" as="geometry" />
        </mxCell>
        <mxCell id="M1MSdD-5XBLC1a_fBFbh-51" value="" style="line;strokeWidth=1;fillColor=none;align=left;verticalAlign=middle;spacingTop=-1;spacingLeft=3;spacingRight=3;rotatable=0;labelPosition=right;points=[];portConstraint=eastwest;strokeColor=inherit;" parent="M1MSdD-5XBLC1a_fBFbh-49" vertex="1">
          <mxGeometry y="52" width="165" height="8" as="geometry" />
        </mxCell>
        <mxCell id="M1MSdD-5XBLC1a_fBFbh-52" value="+ { override }&amp;nbsp;Load(): void" style="text;strokeColor=none;fillColor=none;align=left;verticalAlign=top;spacingLeft=4;spacingRight=4;overflow=hidden;rotatable=0;points=[[0,0.5],[1,0.5]];portConstraint=eastwest;whiteSpace=wrap;html=1;" parent="M1MSdD-5XBLC1a_fBFbh-49" vertex="1">
          <mxGeometry y="60" width="165" height="26" as="geometry" />
        </mxCell>
        <mxCell id="M1MSdD-5XBLC1a_fBFbh-53" value="+ { override }&amp;nbsp;Update(): void" style="text;strokeColor=none;fillColor=none;align=left;verticalAlign=top;spacingLeft=4;spacingRight=4;overflow=hidden;rotatable=0;points=[[0,0.5],[1,0.5]];portConstraint=eastwest;whiteSpace=wrap;html=1;" parent="M1MSdD-5XBLC1a_fBFbh-49" vertex="1">
          <mxGeometry y="86" width="165" height="26" as="geometry" />
        </mxCell>
        <mxCell id="M1MSdD-5XBLC1a_fBFbh-54" value="+ { override } Unload(): void" style="text;strokeColor=none;fillColor=none;align=left;verticalAlign=top;spacingLeft=4;spacingRight=4;overflow=hidden;rotatable=0;points=[[0,0.5],[1,0.5]];portConstraint=eastwest;whiteSpace=wrap;html=1;" parent="M1MSdD-5XBLC1a_fBFbh-49" vertex="1">
          <mxGeometry y="112" width="165" height="26" as="geometry" />
        </mxCell>
        <mxCell id="M1MSdD-5XBLC1a_fBFbh-132" value="&lt;i&gt;Identifiable&lt;/i&gt;" style="swimlane;fontStyle=1;align=center;verticalAlign=top;childLayout=stackLayout;horizontal=1;startSize=26;horizontalStack=0;resizeParent=1;resizeParentMax=0;resizeLast=0;collapsible=1;marginBottom=0;whiteSpace=wrap;html=1;" parent="WIyWlLk6GJQsqaUBKTNV-1" vertex="1">
          <mxGeometry x="1600" y="-1250" width="190" height="138" as="geometry" />
        </mxCell>
        <mxCell id="M1MSdD-5XBLC1a_fBFbh-30" value="- { static } last_uuid: ObjectUUID" style="text;strokeColor=none;fillColor=none;align=left;verticalAlign=top;spacingLeft=4;spacingRight=4;overflow=hidden;rotatable=0;points=[[0,0.5],[1,0.5]];portConstraint=eastwest;whiteSpace=wrap;html=1;" parent="M1MSdD-5XBLC1a_fBFbh-132" vertex="1">
          <mxGeometry y="26" width="190" height="26" as="geometry" />
        </mxCell>
        <mxCell id="M1MSdD-5XBLC1a_fBFbh-133" value="- uuid: ObjectUUID" style="text;strokeColor=none;fillColor=none;align=left;verticalAlign=top;spacingLeft=4;spacingRight=4;overflow=hidden;rotatable=0;points=[[0,0.5],[1,0.5]];portConstraint=eastwest;whiteSpace=wrap;html=1;" parent="M1MSdD-5XBLC1a_fBFbh-132" vertex="1">
          <mxGeometry y="52" width="190" height="26" as="geometry" />
        </mxCell>
        <mxCell id="M1MSdD-5XBLC1a_fBFbh-134" value="" style="line;strokeWidth=1;fillColor=none;align=left;verticalAlign=middle;spacingTop=-1;spacingLeft=3;spacingRight=3;rotatable=0;labelPosition=right;points=[];portConstraint=eastwest;strokeColor=inherit;" parent="M1MSdD-5XBLC1a_fBFbh-132" vertex="1">
          <mxGeometry y="78" width="190" height="8" as="geometry" />
        </mxCell>
        <mxCell id="M1MSdD-5XBLC1a_fBFbh-135" value="# Identifiable()" style="text;strokeColor=none;fillColor=none;align=left;verticalAlign=top;spacingLeft=4;spacingRight=4;overflow=hidden;rotatable=0;points=[[0,0.5],[1,0.5]];portConstraint=eastwest;whiteSpace=wrap;html=1;" parent="M1MSdD-5XBLC1a_fBFbh-132" vertex="1">
          <mxGeometry y="86" width="190" height="26" as="geometry" />
        </mxCell>
        <mxCell id="KMpKYzbZWhltmwKOfllN-19" value="+ GetID(): ObjectUUID" style="text;strokeColor=none;fillColor=none;align=left;verticalAlign=top;spacingLeft=4;spacingRight=4;overflow=hidden;rotatable=0;points=[[0,0.5],[1,0.5]];portConstraint=eastwest;whiteSpace=wrap;html=1;" parent="M1MSdD-5XBLC1a_fBFbh-132" vertex="1">
          <mxGeometry y="112" width="190" height="26" as="geometry" />
        </mxCell>
        <mxCell id="KMpKYzbZWhltmwKOfllN-4" value="GameObject" style="swimlane;fontStyle=1;align=center;verticalAlign=top;childLayout=stackLayout;horizontal=1;startSize=26;horizontalStack=0;resizeParent=1;resizeParentMax=0;resizeLast=0;collapsible=1;marginBottom=0;whiteSpace=wrap;html=1;" parent="WIyWlLk6GJQsqaUBKTNV-1" vertex="1">
          <mxGeometry x="2052.5" y="-880" width="370" height="164" as="geometry" />
        </mxCell>
        <mxCell id="KMpKYzbZWhltmwKOfllN-5" value="- component_registry: std::shared_ptr&amp;lt;ComponentRegistry&amp;gt;" style="text;strokeColor=none;fillColor=none;align=left;verticalAlign=top;spacingLeft=4;spacingRight=4;overflow=hidden;rotatable=0;points=[[0,0.5],[1,0.5]];portConstraint=eastwest;whiteSpace=wrap;html=1;" parent="KMpKYzbZWhltmwKOfllN-4" vertex="1">
          <mxGeometry y="26" width="370" height="26" as="geometry" />
        </mxCell>
        <mxCell id="KMpKYzbZWhltmwKOfllN-6" value="" style="line;strokeWidth=1;fillColor=none;align=left;verticalAlign=middle;spacingTop=-1;spacingLeft=3;spacingRight=3;rotatable=0;labelPosition=right;points=[];portConstraint=eastwest;strokeColor=inherit;" parent="KMpKYzbZWhltmwKOfllN-4" vertex="1">
          <mxGeometry y="52" width="370" height="8" as="geometry" />
        </mxCell>
        <mxCell id="KMpKYzbZWhltmwKOfllN-37" value="+ GameObject(std::shared_ptr&amp;lt;ComponentRegistry&amp;gt;): constructor" style="text;strokeColor=none;fillColor=none;align=left;verticalAlign=top;spacingLeft=4;spacingRight=4;overflow=hidden;rotatable=0;points=[[0,0.5],[1,0.5]];portConstraint=eastwest;whiteSpace=wrap;html=1;" parent="KMpKYzbZWhltmwKOfllN-4" vertex="1">
          <mxGeometry y="60" width="370" height="26" as="geometry" />
        </mxCell>
        <mxCell id="KMpKYzbZWhltmwKOfllN-7" value="+ GetComponent&amp;lt;T&amp;gt;(): std::shared_ptr&amp;lt;T&amp;gt;" style="text;strokeColor=none;fillColor=none;align=left;verticalAlign=top;spacingLeft=4;spacingRight=4;overflow=hidden;rotatable=0;points=[[0,0.5],[1,0.5]];portConstraint=eastwest;whiteSpace=wrap;html=1;" parent="KMpKYzbZWhltmwKOfllN-4" vertex="1">
          <mxGeometry y="86" width="370" height="26" as="geometry" />
        </mxCell>
        <mxCell id="KMpKYzbZWhltmwKOfllN-31" value="+ AddComponent&amp;lt;T&amp;gt;(T): std::shared_ptr&amp;lt;T&amp;gt;" style="text;strokeColor=none;fillColor=none;align=left;verticalAlign=top;spacingLeft=4;spacingRight=4;overflow=hidden;rotatable=0;points=[[0,0.5],[1,0.5]];portConstraint=eastwest;whiteSpace=wrap;html=1;" parent="KMpKYzbZWhltmwKOfllN-4" vertex="1">
          <mxGeometry y="112" width="370" height="26" as="geometry" />
        </mxCell>
        <mxCell id="KMpKYzbZWhltmwKOfllN-32" value="+ RemoveComponent&amp;lt;T&amp;gt;(): void" style="text;strokeColor=none;fillColor=none;align=left;verticalAlign=top;spacingLeft=4;spacingRight=4;overflow=hidden;rotatable=0;points=[[0,0.5],[1,0.5]];portConstraint=eastwest;whiteSpace=wrap;html=1;" parent="KMpKYzbZWhltmwKOfllN-4" vertex="1">
          <mxGeometry y="138" width="370" height="26" as="geometry" />
        </mxCell>
        <mxCell id="KMpKYzbZWhltmwKOfllN-14" value="ComponentRegistry" style="swimlane;fontStyle=1;align=center;verticalAlign=top;childLayout=stackLayout;horizontal=1;startSize=26;horizontalStack=0;resizeParent=1;resizeParentMax=0;resizeLast=0;collapsible=1;marginBottom=0;whiteSpace=wrap;html=1;" parent="WIyWlLk6GJQsqaUBKTNV-1" vertex="1">
          <mxGeometry x="1002.5" y="-880" width="887.5" height="294" as="geometry" />
        </mxCell>
        <mxCell id="KMpKYzbZWhltmwKOfllN-15" value="- component_registry: std::unordered_map&amp;lt;ComponentTypeID, std::shared_ptr&amp;lt;std::unordered_map&amp;lt;ObjectUUID, std::shared_ptr&amp;lt;Component&amp;gt;&amp;gt;&amp;gt;&amp;gt;" style="text;strokeColor=none;fillColor=none;align=left;verticalAlign=top;spacingLeft=4;spacingRight=4;overflow=hidden;rotatable=0;points=[[0,0.5],[1,0.5]];portConstraint=eastwest;whiteSpace=wrap;html=1;" parent="KMpKYzbZWhltmwKOfllN-14" vertex="1">
          <mxGeometry y="26" width="887.5" height="26" as="geometry" />
        </mxCell>
        <mxCell id="F8VIh5NcbDrvzz-t5l7X-10" value="- collision_manager: CollisionManager" style="text;strokeColor=none;fillColor=none;align=left;verticalAlign=top;spacingLeft=4;spacingRight=4;overflow=hidden;rotatable=0;points=[[0,0.5],[1,0.5]];portConstraint=eastwest;whiteSpace=wrap;html=1;" parent="KMpKYzbZWhltmwKOfllN-14" vertex="1">
          <mxGeometry y="52" width="887.5" height="26" as="geometry" />
        </mxCell>
        <mxCell id="KMpKYzbZWhltmwKOfllN-16" value="" style="line;strokeWidth=1;fillColor=none;align=left;verticalAlign=middle;spacingTop=-1;spacingLeft=3;spacingRight=3;rotatable=0;labelPosition=right;points=[];portConstraint=eastwest;strokeColor=inherit;" parent="KMpKYzbZWhltmwKOfllN-14" vertex="1">
          <mxGeometry y="78" width="887.5" height="8" as="geometry" />
        </mxCell>
        <mxCell id="tBnS8gJTHhUAaLSSompM-48" value="- GetComponents(ComponentTypeID): std::unordered_map&amp;lt;ComponentTypeID, std::shared_ptr&amp;lt;std::unordered_map&amp;lt;ObjectUUID, std::shared_ptr&amp;lt;Component&amp;gt;&amp;gt;&amp;gt;" style="text;strokeColor=none;fillColor=none;align=left;verticalAlign=top;spacingLeft=4;spacingRight=4;overflow=hidden;rotatable=0;points=[[0,0.5],[1,0.5]];portConstraint=eastwest;whiteSpace=wrap;html=1;" parent="KMpKYzbZWhltmwKOfllN-14" vertex="1">
          <mxGeometry y="86" width="887.5" height="26" as="geometry" />
        </mxCell>
        <mxCell id="F8VIh5NcbDrvzz-t5l7X-0" value="- Components_Start&amp;lt;T&amp;gt;(std::shared_ptr&amp;lt;std::unordered_map&amp;lt;ObjectUUID, std::shared_ptr&amp;lt;T&amp;gt;&amp;gt;&amp;gt;): void" style="text;strokeColor=none;fillColor=none;align=left;verticalAlign=top;spacingLeft=4;spacingRight=4;overflow=hidden;rotatable=0;points=[[0,0.5],[1,0.5]];portConstraint=eastwest;whiteSpace=wrap;html=1;" parent="KMpKYzbZWhltmwKOfllN-14" vertex="1">
          <mxGeometry y="112" width="887.5" height="26" as="geometry" />
        </mxCell>
        <mxCell id="tBnS8gJTHhUAaLSSompM-50" value="- Components_Update&amp;lt;T&amp;gt;(std::shared_ptr&amp;lt;std::unordered_map&amp;lt;ObjectUUID, std::shared_ptr&amp;lt;T&amp;gt;&amp;gt;&amp;gt;): void" style="text;strokeColor=none;fillColor=none;align=left;verticalAlign=top;spacingLeft=4;spacingRight=4;overflow=hidden;rotatable=0;points=[[0,0.5],[1,0.5]];portConstraint=eastwest;whiteSpace=wrap;html=1;" parent="KMpKYzbZWhltmwKOfllN-14" vertex="1">
          <mxGeometry y="138" width="887.5" height="26" as="geometry" />
        </mxCell>
        <mxCell id="tBnS8gJTHhUAaLSSompM-47" value="+ AllComponents_Start(): void" style="text;strokeColor=none;fillColor=none;align=left;verticalAlign=top;spacingLeft=4;spacingRight=4;overflow=hidden;rotatable=0;points=[[0,0.5],[1,0.5]];portConstraint=eastwest;whiteSpace=wrap;html=1;" parent="KMpKYzbZWhltmwKOfllN-14" vertex="1">
          <mxGeometry y="164" width="887.5" height="26" as="geometry" />
        </mxCell>
        <mxCell id="tBnS8gJTHhUAaLSSompM-49" value="+ AllComponents_Update(): void" style="text;strokeColor=none;fillColor=none;align=left;verticalAlign=top;spacingLeft=4;spacingRight=4;overflow=hidden;rotatable=0;points=[[0,0.5],[1,0.5]];portConstraint=eastwest;whiteSpace=wrap;html=1;" parent="KMpKYzbZWhltmwKOfllN-14" vertex="1">
          <mxGeometry y="190" width="887.5" height="26" as="geometry" />
        </mxCell>
        <mxCell id="KMpKYzbZWhltmwKOfllN-17" value="+ GetComponent&amp;lt;T&amp;gt;(UUID): std::shared_ptr&amp;lt;T&amp;gt;" style="text;strokeColor=none;fillColor=none;align=left;verticalAlign=top;spacingLeft=4;spacingRight=4;overflow=hidden;rotatable=0;points=[[0,0.5],[1,0.5]];portConstraint=eastwest;whiteSpace=wrap;html=1;" parent="KMpKYzbZWhltmwKOfllN-14" vertex="1">
          <mxGeometry y="216" width="887.5" height="26" as="geometry" />
        </mxCell>
        <mxCell id="KMpKYzbZWhltmwKOfllN-33" value="+ RegisterComponent&amp;lt;T&amp;gt;(UUID, T): void" style="text;strokeColor=none;fillColor=none;align=left;verticalAlign=top;spacingLeft=4;spacingRight=4;overflow=hidden;rotatable=0;points=[[0,0.5],[1,0.5]];portConstraint=eastwest;whiteSpace=wrap;html=1;" parent="KMpKYzbZWhltmwKOfllN-14" vertex="1">
          <mxGeometry y="242" width="887.5" height="26" as="geometry" />
        </mxCell>
        <mxCell id="KMpKYzbZWhltmwKOfllN-34" value="+ UnregisterComponent&amp;lt;T&amp;gt;(UUID): void" style="text;strokeColor=none;fillColor=none;align=left;verticalAlign=top;spacingLeft=4;spacingRight=4;overflow=hidden;rotatable=0;points=[[0,0.5],[1,0.5]];portConstraint=eastwest;whiteSpace=wrap;html=1;" parent="KMpKYzbZWhltmwKOfllN-14" vertex="1">
          <mxGeometry y="268" width="887.5" height="26" as="geometry" />
        </mxCell>
        <mxCell id="KMpKYzbZWhltmwKOfllN-20" value="" style="endArrow=blockThin;html=1;endSize=12;startArrow=none;startSize=14;startFill=0;rounded=0;endFill=1;exitX=0;exitY=0.5;exitDx=0;exitDy=0;entryX=1;entryY=0.5;entryDx=0;entryDy=0;" parent="WIyWlLk6GJQsqaUBKTNV-1" source="KMpKYzbZWhltmwKOfllN-5" target="KMpKYzbZWhltmwKOfllN-15" edge="1">
          <mxGeometry x="0.125" y="-10" relative="1" as="geometry">
            <mxPoint x="991.9099999999999" y="-440" as="sourcePoint" />
            <mxPoint x="991.9099999999999" y="-540" as="targetPoint" />
            <mxPoint as="offset" />
          </mxGeometry>
        </mxCell>
        <mxCell id="KMpKYzbZWhltmwKOfllN-21" value="1" style="edgeLabel;resizable=0;html=1;align=right;verticalAlign=top;" parent="KMpKYzbZWhltmwKOfllN-20" connectable="0" vertex="1">
          <mxGeometry x="1" relative="1" as="geometry">
            <mxPoint x="40" as="offset" />
          </mxGeometry>
        </mxCell>
        <mxCell id="KMpKYzbZWhltmwKOfllN-29" value="" style="endArrow=blockThin;html=1;endSize=12;startArrow=none;startSize=14;startFill=0;rounded=0;endFill=1;exitX=1;exitY=0.5;exitDx=0;exitDy=0;entryX=0;entryY=0.5;entryDx=0;entryDy=0;" parent="WIyWlLk6GJQsqaUBKTNV-1" source="KMpKYzbZWhltmwKOfllN-28" target="KMpKYzbZWhltmwKOfllN-15" edge="1">
          <mxGeometry x="0.125" y="-10" relative="1" as="geometry">
            <mxPoint x="1342.5" y="-400" as="sourcePoint" />
            <mxPoint x="1292.5" y="-576" as="targetPoint" />
            <mxPoint as="offset" />
          </mxGeometry>
        </mxCell>
        <mxCell id="KMpKYzbZWhltmwKOfllN-30" value="1" style="edgeLabel;resizable=0;html=1;align=right;verticalAlign=top;" parent="KMpKYzbZWhltmwKOfllN-29" connectable="0" vertex="1">
          <mxGeometry x="1" relative="1" as="geometry">
            <mxPoint x="-31" as="offset" />
          </mxGeometry>
        </mxCell>
        <mxCell id="tBnS8gJTHhUAaLSSompM-14" value="SceneManager" style="swimlane;fontStyle=1;align=center;verticalAlign=top;childLayout=stackLayout;horizontal=1;startSize=26;horizontalStack=0;resizeParent=1;resizeParentMax=0;resizeLast=0;collapsible=1;marginBottom=0;whiteSpace=wrap;html=1;" parent="WIyWlLk6GJQsqaUBKTNV-1" vertex="1">
          <mxGeometry x="162.5" y="-880" width="270" height="164" as="geometry" />
        </mxCell>
        <mxCell id="tBnS8gJTHhUAaLSSompM-15" value="- current_scene: std::shared_ptr&amp;lt;Scene&amp;gt;" style="text;strokeColor=none;fillColor=none;align=left;verticalAlign=top;spacingLeft=4;spacingRight=4;overflow=hidden;rotatable=0;points=[[0,0.5],[1,0.5]];portConstraint=eastwest;whiteSpace=wrap;html=1;" parent="tBnS8gJTHhUAaLSSompM-14" vertex="1">
          <mxGeometry y="26" width="270" height="26" as="geometry" />
        </mxCell>
        <mxCell id="tBnS8gJTHhUAaLSSompM-16" value="" style="line;strokeWidth=1;fillColor=none;align=left;verticalAlign=middle;spacingTop=-1;spacingLeft=3;spacingRight=3;rotatable=0;labelPosition=right;points=[];portConstraint=eastwest;strokeColor=inherit;" parent="tBnS8gJTHhUAaLSSompM-14" vertex="1">
          <mxGeometry y="52" width="270" height="8" as="geometry" />
        </mxCell>
        <mxCell id="tBnS8gJTHhUAaLSSompM-17" value="- SceneManager(): constructor" style="text;strokeColor=none;fillColor=none;align=left;verticalAlign=top;spacingLeft=4;spacingRight=4;overflow=hidden;rotatable=0;points=[[0,0.5],[1,0.5]];portConstraint=eastwest;whiteSpace=wrap;html=1;" parent="tBnS8gJTHhUAaLSSompM-14" vertex="1">
          <mxGeometry y="60" width="270" height="26" as="geometry" />
        </mxCell>
        <mxCell id="tBnS8gJTHhUAaLSSompM-18" value="+ { static } GetInstance(): SceneManager&amp;amp;" style="text;strokeColor=none;fillColor=none;align=left;verticalAlign=top;spacingLeft=4;spacingRight=4;overflow=hidden;rotatable=0;points=[[0,0.5],[1,0.5]];portConstraint=eastwest;whiteSpace=wrap;html=1;" parent="tBnS8gJTHhUAaLSSompM-14" vertex="1">
          <mxGeometry y="86" width="270" height="26" as="geometry" />
        </mxCell>
        <mxCell id="tBnS8gJTHhUAaLSSompM-19" value="+ ChangeScene(std::shared_ptr&amp;lt;Scene&amp;gt;): void" style="text;strokeColor=none;fillColor=none;align=left;verticalAlign=top;spacingLeft=4;spacingRight=4;overflow=hidden;rotatable=0;points=[[0,0.5],[1,0.5]];portConstraint=eastwest;whiteSpace=wrap;html=1;" parent="tBnS8gJTHhUAaLSSompM-14" vertex="1">
          <mxGeometry y="112" width="270" height="26" as="geometry" />
        </mxCell>
        <mxCell id="tBnS8gJTHhUAaLSSompM-20" value="+ GetCurrentScene(): std::shared_ptr&amp;lt;Scene&amp;gt;" style="text;strokeColor=none;fillColor=none;align=left;verticalAlign=top;spacingLeft=4;spacingRight=4;overflow=hidden;rotatable=0;points=[[0,0.5],[1,0.5]];portConstraint=eastwest;whiteSpace=wrap;html=1;" parent="tBnS8gJTHhUAaLSSompM-14" vertex="1">
          <mxGeometry y="138" width="270" height="26" as="geometry" />
        </mxCell>
        <mxCell id="tBnS8gJTHhUAaLSSompM-21" value="Gameloop" style="swimlane;fontStyle=1;align=center;verticalAlign=top;childLayout=stackLayout;horizontal=1;startSize=26;horizontalStack=0;resizeParent=1;resizeParentMax=0;resizeLast=0;collapsible=1;marginBottom=0;whiteSpace=wrap;html=1;" parent="WIyWlLk6GJQsqaUBKTNV-1" vertex="1">
          <mxGeometry x="-127.5" y="-880" width="180" height="104" as="geometry" />
        </mxCell>
        <mxCell id="tBnS8gJTHhUAaLSSompM-22" value="+ { static } Start(): void" style="text;strokeColor=none;fillColor=none;align=left;verticalAlign=top;spacingLeft=4;spacingRight=4;overflow=hidden;rotatable=0;points=[[0,0.5],[1,0.5]];portConstraint=eastwest;whiteSpace=wrap;html=1;" parent="tBnS8gJTHhUAaLSSompM-21" vertex="1">
          <mxGeometry y="26" width="180" height="26" as="geometry" />
        </mxCell>
        <mxCell id="tBnS8gJTHhUAaLSSompM-23" value="+ { static }&amp;nbsp;Update(double): void" style="text;strokeColor=none;fillColor=none;align=left;verticalAlign=top;spacingLeft=4;spacingRight=4;overflow=hidden;rotatable=0;points=[[0,0.5],[1,0.5]];portConstraint=eastwest;whiteSpace=wrap;html=1;" parent="tBnS8gJTHhUAaLSSompM-21" vertex="1">
          <mxGeometry y="52" width="180" height="26" as="geometry" />
        </mxCell>
        <mxCell id="tBnS8gJTHhUAaLSSompM-24" value="+ { static }&amp;nbsp;End(): void" style="text;strokeColor=none;fillColor=none;align=left;verticalAlign=top;spacingLeft=4;spacingRight=4;overflow=hidden;rotatable=0;points=[[0,0.5],[1,0.5]];portConstraint=eastwest;whiteSpace=wrap;html=1;" parent="tBnS8gJTHhUAaLSSompM-21" vertex="1">
          <mxGeometry y="78" width="180" height="26" as="geometry" />
        </mxCell>
        <mxCell id="tBnS8gJTHhUAaLSSompM-25" value="" style="endArrow=none;html=1;endSize=12;startArrow=blockThin;startSize=14;startFill=1;rounded=0;endFill=0;exitX=0;exitY=0.5;exitDx=0;exitDy=0;entryX=1;entryY=0.5;entryDx=0;entryDy=0;" parent="WIyWlLk6GJQsqaUBKTNV-1" source="tBnS8gJTHhUAaLSSompM-15" target="tBnS8gJTHhUAaLSSompM-22" edge="1">
          <mxGeometry x="0.125" y="-10" relative="1" as="geometry">
            <mxPoint x="442.5" y="-810" as="sourcePoint" />
            <mxPoint x="122.5" y="-810" as="targetPoint" />
            <mxPoint as="offset" />
          </mxGeometry>
        </mxCell>
        <mxCell id="tBnS8gJTHhUAaLSSompM-26" value="1" style="edgeLabel;resizable=0;html=1;align=left;verticalAlign=top;" parent="tBnS8gJTHhUAaLSSompM-25" connectable="0" vertex="1">
          <mxGeometry x="-1" relative="1" as="geometry">
            <mxPoint x="-41" as="offset" />
          </mxGeometry>
        </mxCell>
        <mxCell id="tBnS8gJTHhUAaLSSompM-27" value="" style="endArrow=none;html=1;endSize=12;startArrow=blockThin;startSize=14;startFill=1;rounded=0;endFill=0;entryX=0;entryY=0;entryDx=0;entryDy=42;entryPerimeter=0;exitX=0;exitY=0.5;exitDx=0;exitDy=0;" parent="WIyWlLk6GJQsqaUBKTNV-1" source="tBnS8gJTHhUAaLSSompM-22" target="tBnS8gJTHhUAaLSSompM-29" edge="1">
          <mxGeometry x="0.125" y="-10" relative="1" as="geometry">
            <mxPoint x="230" y="-1320" as="sourcePoint" />
            <mxPoint x="466.5" y="-1269" as="targetPoint" />
            <mxPoint as="offset" />
          </mxGeometry>
        </mxCell>
        <mxCell id="tBnS8gJTHhUAaLSSompM-28" value="1" style="edgeLabel;resizable=0;html=1;align=left;verticalAlign=top;" parent="tBnS8gJTHhUAaLSSompM-27" connectable="0" vertex="1">
          <mxGeometry x="-1" relative="1" as="geometry">
            <mxPoint x="-40" as="offset" />
          </mxGeometry>
        </mxCell>
        <mxCell id="tBnS8gJTHhUAaLSSompM-29" value="Shell" style="shape=folder;fontStyle=1;spacingTop=10;tabWidth=40;tabHeight=14;tabPosition=left;html=1;whiteSpace=wrap;" parent="WIyWlLk6GJQsqaUBKTNV-1" vertex="1">
          <mxGeometry x="-670" y="-880" width="100" height="70" as="geometry" />
        </mxCell>
        <mxCell id="tBnS8gJTHhUAaLSSompM-30" value="" style="endArrow=none;html=1;endSize=12;startArrow=blockThin;startSize=14;startFill=1;rounded=0;endFill=0;entryX=1;entryY=0.5;entryDx=0;entryDy=0;exitX=0;exitY=0.5;exitDx=0;exitDy=0;" parent="WIyWlLk6GJQsqaUBKTNV-1" source="KMpKYzbZWhltmwKOfllN-28" target="tBnS8gJTHhUAaLSSompM-15" edge="1">
          <mxGeometry x="0.125" y="-10" relative="1" as="geometry">
            <mxPoint x="502.5" y="-780" as="sourcePoint" />
            <mxPoint x="462.5" y="-790" as="targetPoint" />
            <mxPoint as="offset" />
          </mxGeometry>
        </mxCell>
        <mxCell id="tBnS8gJTHhUAaLSSompM-31" value="1" style="edgeLabel;resizable=0;html=1;align=left;verticalAlign=top;" parent="tBnS8gJTHhUAaLSSompM-30" connectable="0" vertex="1">
          <mxGeometry x="-1" relative="1" as="geometry">
            <mxPoint x="-41" y="2" as="offset" />
          </mxGeometry>
        </mxCell>
        <mxCell id="tBnS8gJTHhUAaLSSompM-34" value="" style="endArrow=block;endSize=16;endFill=0;html=1;rounded=0;exitX=0.5;exitY=0;exitDx=0;exitDy=0;" parent="WIyWlLk6GJQsqaUBKTNV-1" source="ChDK3uv7QOIiksjjmPV_-16" target="M1MSdD-5XBLC1a_fBFbh-132" edge="1">
          <mxGeometry width="160" relative="1" as="geometry">
            <mxPoint x="1695" y="-1020" as="sourcePoint" />
            <mxPoint x="1397.5" y="-890" as="targetPoint" />
          </mxGeometry>
        </mxCell>
        <mxCell id="tBnS8gJTHhUAaLSSompM-35" value="" style="endArrow=blockThin;html=1;endSize=12;startArrow=none;startSize=14;startFill=0;rounded=0;endFill=1;entryX=0;entryY=0.5;entryDx=0;entryDy=0;exitX=1;exitY=0.5;exitDx=0;exitDy=0;" parent="WIyWlLk6GJQsqaUBKTNV-1" source="KMpKYzbZWhltmwKOfllN-34" target="Dls-eGzetItIZ1qPlxtJ-1" edge="1">
          <mxGeometry x="0.125" y="-10" relative="1" as="geometry">
            <mxPoint x="1222.07" y="-751" as="sourcePoint" />
            <mxPoint x="1407.5" y="-566" as="targetPoint" />
            <mxPoint as="offset" />
          </mxGeometry>
        </mxCell>
        <mxCell id="tBnS8gJTHhUAaLSSompM-36" value="*" style="edgeLabel;resizable=0;html=1;align=right;verticalAlign=top;" parent="tBnS8gJTHhUAaLSSompM-35" connectable="0" vertex="1">
          <mxGeometry x="1" relative="1" as="geometry">
            <mxPoint x="-31" as="offset" />
          </mxGeometry>
        </mxCell>
        <mxCell id="tBnS8gJTHhUAaLSSompM-51" value="" style="endArrow=blockThin;html=1;endSize=12;startArrow=none;startSize=14;startFill=0;rounded=0;endFill=1;exitX=0;exitY=0.5;exitDx=0;exitDy=0;entryX=1;entryY=0.5;entryDx=0;entryDy=0;" parent="WIyWlLk6GJQsqaUBKTNV-1" source="M1MSdD-5XBLC1a_fBFbh-8" target="KMpKYzbZWhltmwKOfllN-5" edge="1">
          <mxGeometry x="0.125" y="-10" relative="1" as="geometry">
            <mxPoint x="2632.5" y="-504" as="sourcePoint" />
            <mxPoint x="2482.59" y="-750" as="targetPoint" />
            <mxPoint as="offset" />
          </mxGeometry>
        </mxCell>
        <mxCell id="tBnS8gJTHhUAaLSSompM-52" value="1" style="edgeLabel;resizable=0;html=1;align=right;verticalAlign=top;" parent="tBnS8gJTHhUAaLSSompM-51" connectable="0" vertex="1">
          <mxGeometry x="1" relative="1" as="geometry">
            <mxPoint x="30" as="offset" />
          </mxGeometry>
        </mxCell>
        <mxCell id="tBnS8gJTHhUAaLSSompM-61" value="Scenes" style="shape=umlFrame;whiteSpace=wrap;html=1;pointerEvents=0;width=70;height=30;" parent="WIyWlLk6GJQsqaUBKTNV-1" vertex="1">
          <mxGeometry x="-2.5000000000000018" y="-2560" width="770" height="460" as="geometry" />
        </mxCell>
        <mxCell id="tBnS8gJTHhUAaLSSompM-62" value="Scene_Level2" style="swimlane;fontStyle=1;align=center;verticalAlign=top;childLayout=stackLayout;horizontal=1;startSize=26;horizontalStack=0;resizeParent=1;resizeParentMax=0;resizeLast=0;collapsible=1;marginBottom=0;whiteSpace=wrap;html=1;" parent="WIyWlLk6GJQsqaUBKTNV-1" vertex="1">
          <mxGeometry x="297.5" y="-2290" width="165" height="138" as="geometry" />
        </mxCell>
        <mxCell id="tBnS8gJTHhUAaLSSompM-63" value="- ?" style="text;strokeColor=none;fillColor=none;align=left;verticalAlign=top;spacingLeft=4;spacingRight=4;overflow=hidden;rotatable=0;points=[[0,0.5],[1,0.5]];portConstraint=eastwest;whiteSpace=wrap;html=1;" parent="tBnS8gJTHhUAaLSSompM-62" vertex="1">
          <mxGeometry y="26" width="165" height="26" as="geometry" />
        </mxCell>
        <mxCell id="tBnS8gJTHhUAaLSSompM-64" value="" style="line;strokeWidth=1;fillColor=none;align=left;verticalAlign=middle;spacingTop=-1;spacingLeft=3;spacingRight=3;rotatable=0;labelPosition=right;points=[];portConstraint=eastwest;strokeColor=inherit;" parent="tBnS8gJTHhUAaLSSompM-62" vertex="1">
          <mxGeometry y="52" width="165" height="8" as="geometry" />
        </mxCell>
        <mxCell id="tBnS8gJTHhUAaLSSompM-65" value="+ { override }&amp;nbsp;Load(): void" style="text;strokeColor=none;fillColor=none;align=left;verticalAlign=top;spacingLeft=4;spacingRight=4;overflow=hidden;rotatable=0;points=[[0,0.5],[1,0.5]];portConstraint=eastwest;whiteSpace=wrap;html=1;" parent="tBnS8gJTHhUAaLSSompM-62" vertex="1">
          <mxGeometry y="60" width="165" height="26" as="geometry" />
        </mxCell>
        <mxCell id="tBnS8gJTHhUAaLSSompM-66" value="+ { override }&amp;nbsp;Update(): void" style="text;strokeColor=none;fillColor=none;align=left;verticalAlign=top;spacingLeft=4;spacingRight=4;overflow=hidden;rotatable=0;points=[[0,0.5],[1,0.5]];portConstraint=eastwest;whiteSpace=wrap;html=1;" parent="tBnS8gJTHhUAaLSSompM-62" vertex="1">
          <mxGeometry y="86" width="165" height="26" as="geometry" />
        </mxCell>
        <mxCell id="tBnS8gJTHhUAaLSSompM-67" value="+ { override } Unload(): void" style="text;strokeColor=none;fillColor=none;align=left;verticalAlign=top;spacingLeft=4;spacingRight=4;overflow=hidden;rotatable=0;points=[[0,0.5],[1,0.5]];portConstraint=eastwest;whiteSpace=wrap;html=1;" parent="tBnS8gJTHhUAaLSSompM-62" vertex="1">
          <mxGeometry y="112" width="165" height="26" as="geometry" />
        </mxCell>
        <mxCell id="tBnS8gJTHhUAaLSSompM-72" value="Components" style="shape=umlFrame;whiteSpace=wrap;html=1;pointerEvents=0;width=110;height=40;" parent="WIyWlLk6GJQsqaUBKTNV-1" vertex="1">
          <mxGeometry x="-190" y="-80" width="2670" height="1120" as="geometry" />
        </mxCell>
        <mxCell id="tBnS8gJTHhUAaLSSompM-73" value="Miscellaneous" style="shape=umlFrame;whiteSpace=wrap;html=1;pointerEvents=0;width=110;height=40;" parent="WIyWlLk6GJQsqaUBKTNV-1" vertex="1">
          <mxGeometry x="-190" y="-1672" width="930" height="500" as="geometry" />
        </mxCell>
        <mxCell id="tBnS8gJTHhUAaLSSompM-77" value="Time" style="swimlane;fontStyle=1;align=center;verticalAlign=top;childLayout=stackLayout;horizontal=1;startSize=26;horizontalStack=0;resizeParent=1;resizeParentMax=0;resizeLast=0;collapsible=1;marginBottom=0;whiteSpace=wrap;html=1;" parent="WIyWlLk6GJQsqaUBKTNV-1" vertex="1">
          <mxGeometry x="127.5" y="-1482" width="170" height="52" as="geometry" />
        </mxCell>
        <mxCell id="tBnS8gJTHhUAaLSSompM-78" value="+ { static } delta_time: double" style="text;strokeColor=none;fillColor=none;align=left;verticalAlign=top;spacingLeft=4;spacingRight=4;overflow=hidden;rotatable=0;points=[[0,0.5],[1,0.5]];portConstraint=eastwest;whiteSpace=wrap;html=1;" parent="tBnS8gJTHhUAaLSSompM-77" vertex="1">
          <mxGeometry y="26" width="170" height="26" as="geometry" />
        </mxCell>
        <mxCell id="tBnS8gJTHhUAaLSSompM-82" value="«macro»&lt;br&gt;&lt;b&gt;LOG(std::string)&lt;/b&gt;" style="html=1;whiteSpace=wrap;" parent="WIyWlLk6GJQsqaUBKTNV-1" vertex="1">
          <mxGeometry x="-97.5" y="-1481.9999999999998" width="110" height="50" as="geometry" />
        </mxCell>
        <mxCell id="6qDn0OYKWrzkokKBHu0U-0" value="Component_SpriteRenderer" style="swimlane;fontStyle=1;align=center;verticalAlign=top;childLayout=stackLayout;horizontal=1;startSize=26;horizontalStack=0;resizeParent=1;resizeParentMax=0;resizeLast=0;collapsible=1;marginBottom=0;whiteSpace=wrap;html=1;" parent="WIyWlLk6GJQsqaUBKTNV-1" vertex="1">
          <mxGeometry x="447.5" y="213" width="200" height="186" as="geometry" />
        </mxCell>
        <mxCell id="6qDn0OYKWrzkokKBHu0U-1" value="- PictureIndex: image" style="text;strokeColor=none;fillColor=none;align=left;verticalAlign=top;spacingLeft=4;spacingRight=4;overflow=hidden;rotatable=0;points=[[0,0.5],[1,0.5]];portConstraint=eastwest;whiteSpace=wrap;html=1;" parent="6qDn0OYKWrzkokKBHu0U-0" vertex="1">
          <mxGeometry y="26" width="200" height="26" as="geometry" />
        </mxCell>
        <mxCell id="w8y_SFDK-2R7jtDNggBs-14" value="+ transparency: float" style="text;strokeColor=none;fillColor=none;align=left;verticalAlign=top;spacingLeft=4;spacingRight=4;overflow=hidden;rotatable=0;points=[[0,0.5],[1,0.5]];portConstraint=eastwest;whiteSpace=wrap;html=1;" parent="6qDn0OYKWrzkokKBHu0U-0" vertex="1">
          <mxGeometry y="52" width="200" height="26" as="geometry" />
        </mxCell>
        <mxCell id="6qDn0OYKWrzkokKBHu0U-4" value="" style="line;strokeWidth=1;fillColor=none;align=left;verticalAlign=middle;spacingTop=-1;spacingLeft=3;spacingRight=3;rotatable=0;labelPosition=right;points=[];portConstraint=eastwest;strokeColor=inherit;" parent="6qDn0OYKWrzkokKBHu0U-0" vertex="1">
          <mxGeometry y="78" width="200" height="8" as="geometry" />
        </mxCell>
        <mxCell id="6qDn0OYKWrzkokKBHu0U-6" value="+ SetSprite(Sprite sprite): void" style="text;strokeColor=none;fillColor=none;align=left;verticalAlign=top;spacingLeft=4;spacingRight=4;overflow=hidden;rotatable=0;points=[[0,0.5],[1,0.5]];portConstraint=eastwest;whiteSpace=wrap;html=1;" parent="6qDn0OYKWrzkokKBHu0U-0" vertex="1">
          <mxGeometry y="86" width="200" height="26" as="geometry" />
        </mxCell>
        <mxCell id="OVnKnol72kGfrmUa5j2k-3" value="+ UnsetSprite(): void" style="text;strokeColor=none;fillColor=none;align=left;verticalAlign=top;spacingLeft=4;spacingRight=4;overflow=hidden;rotatable=0;points=[[0,0.5],[1,0.5]];portConstraint=eastwest;whiteSpace=wrap;html=1;" parent="6qDn0OYKWrzkokKBHu0U-0" vertex="1">
          <mxGeometry y="112" width="200" height="26" as="geometry" />
        </mxCell>
        <mxCell id="OVnKnol72kGfrmUa5j2k-4" value="+ { override }&amp;nbsp;Startable(): void" style="text;strokeColor=none;fillColor=none;align=left;verticalAlign=top;spacingLeft=4;spacingRight=4;overflow=hidden;rotatable=0;points=[[0,0.5],[1,0.5]];portConstraint=eastwest;whiteSpace=wrap;html=1;" parent="6qDn0OYKWrzkokKBHu0U-0" vertex="1">
          <mxGeometry y="138" width="200" height="24" as="geometry" />
        </mxCell>
        <mxCell id="FnCDFKwJpO0uUA8LM9jn-22" value="+ { override }&amp;nbsp;Update(): void" style="text;strokeColor=none;fillColor=none;align=left;verticalAlign=top;spacingLeft=4;spacingRight=4;overflow=hidden;rotatable=0;points=[[0,0.5],[1,0.5]];portConstraint=eastwest;whiteSpace=wrap;html=1;" parent="6qDn0OYKWrzkokKBHu0U-0" vertex="1">
          <mxGeometry y="162" width="200" height="24" as="geometry" />
        </mxCell>
        <mxCell id="6qDn0OYKWrzkokKBHu0U-10" value="&lt;i&gt;Component_Collider&lt;/i&gt;" style="swimlane;fontStyle=1;align=center;verticalAlign=top;childLayout=stackLayout;horizontal=1;startSize=26;horizontalStack=0;resizeParent=1;resizeParentMax=0;resizeLast=0;collapsible=1;marginBottom=0;whiteSpace=wrap;html=1;" parent="WIyWlLk6GJQsqaUBKTNV-1" vertex="1">
          <mxGeometry x="1105" y="213" width="480" height="428" as="geometry" />
        </mxCell>
        <mxCell id="6qDn0OYKWrzkokKBHu0U-11" value="- in_collision: bool" style="text;strokeColor=none;fillColor=none;align=left;verticalAlign=top;spacingLeft=4;spacingRight=4;overflow=hidden;rotatable=0;points=[[0,0.5],[1,0.5]];portConstraint=eastwest;whiteSpace=wrap;html=1;" parent="6qDn0OYKWrzkokKBHu0U-10" vertex="1">
          <mxGeometry y="26" width="480" height="26" as="geometry" />
        </mxCell>
        <mxCell id="ChDK3uv7QOIiksjjmPV_-1" value="# position: Vector2D" style="text;strokeColor=none;fillColor=none;align=left;verticalAlign=top;spacingLeft=4;spacingRight=4;overflow=hidden;rotatable=0;points=[[0,0.5],[1,0.5]];portConstraint=eastwest;whiteSpace=wrap;html=1;" parent="6qDn0OYKWrzkokKBHu0U-10" vertex="1">
          <mxGeometry y="52" width="480" height="26" as="geometry" />
        </mxCell>
        <mxCell id="ChDK3uv7QOIiksjjmPV_-80" value="- OnCollisionStay(): std::function&amp;lt;void(std::shared_ptr&amp;lt;GameObject&amp;gt;)&amp;gt;" style="text;strokeColor=none;fillColor=none;align=left;verticalAlign=top;spacingLeft=4;spacingRight=4;overflow=hidden;rotatable=0;points=[[0,0.5],[1,0.5]];portConstraint=eastwest;whiteSpace=wrap;html=1;" parent="6qDn0OYKWrzkokKBHu0U-10" vertex="1">
          <mxGeometry y="78" width="480" height="24" as="geometry" />
        </mxCell>
        <mxCell id="ChDK3uv7QOIiksjjmPV_-81" value="- OnCollisionEnter(): std::function&amp;lt;void(std::shared_ptr&amp;lt;GameObject&amp;gt;)&amp;gt;" style="text;strokeColor=none;fillColor=none;align=left;verticalAlign=top;spacingLeft=4;spacingRight=4;overflow=hidden;rotatable=0;points=[[0,0.5],[1,0.5]];portConstraint=eastwest;whiteSpace=wrap;html=1;" parent="6qDn0OYKWrzkokKBHu0U-10" vertex="1">
          <mxGeometry y="102" width="480" height="24" as="geometry" />
        </mxCell>
        <mxCell id="ChDK3uv7QOIiksjjmPV_-82" value="- OnCollisionLeave(): std::function&amp;lt;void(std::shared_ptr&amp;lt;GameObject&amp;gt;)&amp;gt;" style="text;strokeColor=none;fillColor=none;align=left;verticalAlign=top;spacingLeft=4;spacingRight=4;overflow=hidden;rotatable=0;points=[[0,0.5],[1,0.5]];portConstraint=eastwest;whiteSpace=wrap;html=1;" parent="6qDn0OYKWrzkokKBHu0U-10" vertex="1">
          <mxGeometry y="126" width="480" height="24" as="geometry" />
        </mxCell>
        <mxCell id="6qDn0OYKWrzkokKBHu0U-14" value="" style="line;strokeWidth=1;fillColor=none;align=left;verticalAlign=middle;spacingTop=-1;spacingLeft=3;spacingRight=3;rotatable=0;labelPosition=right;points=[];portConstraint=eastwest;strokeColor=inherit;" parent="6qDn0OYKWrzkokKBHu0U-10" vertex="1">
          <mxGeometry y="150" width="480" height="8" as="geometry" />
        </mxCell>
        <mxCell id="FnCDFKwJpO0uUA8LM9jn-24" value="+ { override } Startable(): bool" style="text;strokeColor=none;fillColor=none;align=left;verticalAlign=top;spacingLeft=4;spacingRight=4;overflow=hidden;rotatable=0;points=[[0,0.5],[1,0.5]];portConstraint=eastwest;whiteSpace=wrap;html=1;" parent="6qDn0OYKWrzkokKBHu0U-10" vertex="1">
          <mxGeometry y="158" width="480" height="26" as="geometry" />
        </mxCell>
        <mxCell id="F8VIh5NcbDrvzz-t5l7X-3" value="+ { override final } Updatable(): bool" style="text;strokeColor=none;fillColor=none;align=left;verticalAlign=top;spacingLeft=4;spacingRight=4;overflow=hidden;rotatable=0;points=[[0,0.5],[1,0.5]];portConstraint=eastwest;whiteSpace=wrap;html=1;" parent="6qDn0OYKWrzkokKBHu0U-10" vertex="1">
          <mxGeometry y="184" width="480" height="26" as="geometry" />
        </mxCell>
        <mxCell id="6qDn0OYKWrzkokKBHu0U-16" value="# { abstract } GetShape(): std::shared_ptr&amp;lt;IShape2D&amp;gt;" style="text;strokeColor=none;fillColor=none;align=left;verticalAlign=top;spacingLeft=4;spacingRight=4;overflow=hidden;rotatable=0;points=[[0,0.5],[1,0.5]];portConstraint=eastwest;whiteSpace=wrap;html=1;" parent="6qDn0OYKWrzkokKBHu0U-10" vertex="1">
          <mxGeometry y="210" width="480" height="26" as="geometry" />
        </mxCell>
        <mxCell id="6qDn0OYKWrzkokKBHu0U-17" value="+ HandleCollision(std::shared_ptr&amp;lt;Component_Collider&amp;gt; other): void" style="text;strokeColor=none;fillColor=none;align=left;verticalAlign=top;spacingLeft=4;spacingRight=4;overflow=hidden;rotatable=0;points=[[0,0.5],[1,0.5]];portConstraint=eastwest;whiteSpace=wrap;html=1;" parent="6qDn0OYKWrzkokKBHu0U-10" vertex="1">
          <mxGeometry y="236" width="480" height="24" as="geometry" />
        </mxCell>
        <mxCell id="Dls-eGzetItIZ1qPlxtJ-11" value="- CollidesWith(std::shared_ptr&amp;lt;Component_Collider&amp;gt; other): bool" style="text;strokeColor=none;fillColor=none;align=left;verticalAlign=top;spacingLeft=4;spacingRight=4;overflow=hidden;rotatable=0;points=[[0,0.5],[1,0.5]];portConstraint=eastwest;whiteSpace=wrap;html=1;" parent="6qDn0OYKWrzkokKBHu0U-10" vertex="1">
          <mxGeometry y="260" width="480" height="24" as="geometry" />
        </mxCell>
        <mxCell id="Dls-eGzetItIZ1qPlxtJ-12" value="+ SetOnCollisionEnter(std::function&amp;lt;void(std::shared_ptr&amp;lt;GameObject&amp;gt;)&amp;gt;): void" style="text;strokeColor=none;fillColor=none;align=left;verticalAlign=top;spacingLeft=4;spacingRight=4;overflow=hidden;rotatable=0;points=[[0,0.5],[1,0.5]];portConstraint=eastwest;whiteSpace=wrap;html=1;" parent="6qDn0OYKWrzkokKBHu0U-10" vertex="1">
          <mxGeometry y="284" width="480" height="24" as="geometry" />
        </mxCell>
        <mxCell id="Dls-eGzetItIZ1qPlxtJ-13" value="+ SetOnCollisionStay(std::function&amp;lt;void(std::shared_ptr&amp;lt;GameObject&amp;gt;)&amp;gt;): void" style="text;strokeColor=none;fillColor=none;align=left;verticalAlign=top;spacingLeft=4;spacingRight=4;overflow=hidden;rotatable=0;points=[[0,0.5],[1,0.5]];portConstraint=eastwest;whiteSpace=wrap;html=1;" parent="6qDn0OYKWrzkokKBHu0U-10" vertex="1">
          <mxGeometry y="308" width="480" height="24" as="geometry" />
        </mxCell>
        <mxCell id="Dls-eGzetItIZ1qPlxtJ-14" value="+ SetOnCollisionLeave(std::function&amp;lt;void(std::shared_ptr&amp;lt;GameObject&amp;gt;)&amp;gt;): void" style="text;strokeColor=none;fillColor=none;align=left;verticalAlign=top;spacingLeft=4;spacingRight=4;overflow=hidden;rotatable=0;points=[[0,0.5],[1,0.5]];portConstraint=eastwest;whiteSpace=wrap;html=1;" parent="6qDn0OYKWrzkokKBHu0U-10" vertex="1">
          <mxGeometry y="332" width="480" height="24" as="geometry" />
        </mxCell>
        <mxCell id="ChDK3uv7QOIiksjjmPV_-72" value="# GetWorldPosition(): Vector2D" style="text;strokeColor=none;fillColor=none;align=left;verticalAlign=top;spacingLeft=4;spacingRight=4;overflow=hidden;rotatable=0;points=[[0,0.5],[1,0.5]];portConstraint=eastwest;whiteSpace=wrap;html=1;" parent="6qDn0OYKWrzkokKBHu0U-10" vertex="1">
          <mxGeometry y="356" width="480" height="24" as="geometry" />
        </mxCell>
        <mxCell id="ChDK3uv7QOIiksjjmPV_-71" value="# { abstract } UpdatePosition(): void" style="text;strokeColor=none;fillColor=none;align=left;verticalAlign=top;spacingLeft=4;spacingRight=4;overflow=hidden;rotatable=0;points=[[0,0.5],[1,0.5]];portConstraint=eastwest;whiteSpace=wrap;html=1;" parent="6qDn0OYKWrzkokKBHu0U-10" vertex="1">
          <mxGeometry y="380" width="480" height="24" as="geometry" />
        </mxCell>
        <mxCell id="ChDK3uv7QOIiksjjmPV_-2" value="# { override final } Update(): void" style="text;strokeColor=none;fillColor=none;align=left;verticalAlign=top;spacingLeft=4;spacingRight=4;overflow=hidden;rotatable=0;points=[[0,0.5],[1,0.5]];portConstraint=eastwest;whiteSpace=wrap;html=1;" parent="6qDn0OYKWrzkokKBHu0U-10" vertex="1">
          <mxGeometry y="404" width="480" height="24" as="geometry" />
        </mxCell>
        <mxCell id="w8y_SFDK-2R7jtDNggBs-0" value="Scene_Level3" style="swimlane;fontStyle=1;align=center;verticalAlign=top;childLayout=stackLayout;horizontal=1;startSize=26;horizontalStack=0;resizeParent=1;resizeParentMax=0;resizeLast=0;collapsible=1;marginBottom=0;whiteSpace=wrap;html=1;" parent="WIyWlLk6GJQsqaUBKTNV-1" vertex="1">
          <mxGeometry x="557.5" y="-2290" width="165" height="138" as="geometry" />
        </mxCell>
        <mxCell id="w8y_SFDK-2R7jtDNggBs-1" value="- ?" style="text;strokeColor=none;fillColor=none;align=left;verticalAlign=top;spacingLeft=4;spacingRight=4;overflow=hidden;rotatable=0;points=[[0,0.5],[1,0.5]];portConstraint=eastwest;whiteSpace=wrap;html=1;" parent="w8y_SFDK-2R7jtDNggBs-0" vertex="1">
          <mxGeometry y="26" width="165" height="26" as="geometry" />
        </mxCell>
        <mxCell id="w8y_SFDK-2R7jtDNggBs-2" value="" style="line;strokeWidth=1;fillColor=none;align=left;verticalAlign=middle;spacingTop=-1;spacingLeft=3;spacingRight=3;rotatable=0;labelPosition=right;points=[];portConstraint=eastwest;strokeColor=inherit;" parent="w8y_SFDK-2R7jtDNggBs-0" vertex="1">
          <mxGeometry y="52" width="165" height="8" as="geometry" />
        </mxCell>
        <mxCell id="w8y_SFDK-2R7jtDNggBs-3" value="+ { override }&amp;nbsp;Load(): void" style="text;strokeColor=none;fillColor=none;align=left;verticalAlign=top;spacingLeft=4;spacingRight=4;overflow=hidden;rotatable=0;points=[[0,0.5],[1,0.5]];portConstraint=eastwest;whiteSpace=wrap;html=1;" parent="w8y_SFDK-2R7jtDNggBs-0" vertex="1">
          <mxGeometry y="60" width="165" height="26" as="geometry" />
        </mxCell>
        <mxCell id="w8y_SFDK-2R7jtDNggBs-4" value="+ { override }&amp;nbsp;Update(): void" style="text;strokeColor=none;fillColor=none;align=left;verticalAlign=top;spacingLeft=4;spacingRight=4;overflow=hidden;rotatable=0;points=[[0,0.5],[1,0.5]];portConstraint=eastwest;whiteSpace=wrap;html=1;" parent="w8y_SFDK-2R7jtDNggBs-0" vertex="1">
          <mxGeometry y="86" width="165" height="26" as="geometry" />
        </mxCell>
        <mxCell id="w8y_SFDK-2R7jtDNggBs-5" value="+ { override } Unload(): void" style="text;strokeColor=none;fillColor=none;align=left;verticalAlign=top;spacingLeft=4;spacingRight=4;overflow=hidden;rotatable=0;points=[[0,0.5],[1,0.5]];portConstraint=eastwest;whiteSpace=wrap;html=1;" parent="w8y_SFDK-2R7jtDNggBs-0" vertex="1">
          <mxGeometry y="112" width="165" height="26" as="geometry" />
        </mxCell>
        <mxCell id="w8y_SFDK-2R7jtDNggBs-10" value="" style="endArrow=blockThin;html=1;endSize=12;startArrow=none;startSize=14;startFill=0;rounded=0;endFill=1;exitX=1;exitY=0.5;exitDx=0;exitDy=0;entryX=0;entryY=0.5;entryDx=0;entryDy=0;" parent="WIyWlLk6GJQsqaUBKTNV-1" source="6qDn0OYKWrzkokKBHu0U-1" target="M1MSdD-5XBLC1a_fBFbh-109" edge="1">
          <mxGeometry x="0.125" y="-10" relative="1" as="geometry">
            <mxPoint x="5522.5" y="-521.5" as="sourcePoint" />
            <mxPoint x="5382.5" y="-521.5" as="targetPoint" />
            <mxPoint as="offset" />
          </mxGeometry>
        </mxCell>
        <mxCell id="w8y_SFDK-2R7jtDNggBs-11" value="1" style="edgeLabel;resizable=0;html=1;align=right;verticalAlign=top;" parent="w8y_SFDK-2R7jtDNggBs-10" connectable="0" vertex="1">
          <mxGeometry x="1" relative="1" as="geometry">
            <mxPoint x="-40" as="offset" />
          </mxGeometry>
        </mxCell>
        <mxCell id="w8y_SFDK-2R7jtDNggBs-15" value="" style="endArrow=none;html=1;endSize=12;startArrow=blockThin;startSize=14;startFill=1;rounded=0;endFill=0;exitX=0;exitY=0.5;exitDx=0;exitDy=0;entryX=1;entryY=0.5;entryDx=0;entryDy=0;" parent="WIyWlLk6GJQsqaUBKTNV-1" source="tBnS8gJTHhUAaLSSompM-63" target="M1MSdD-5XBLC1a_fBFbh-50" edge="1">
          <mxGeometry x="0.125" y="-10" relative="1" as="geometry">
            <mxPoint x="320" y="-2340" as="sourcePoint" />
            <mxPoint x="210" y="-2340" as="targetPoint" />
            <mxPoint as="offset" />
          </mxGeometry>
        </mxCell>
        <mxCell id="w8y_SFDK-2R7jtDNggBs-16" value="1" style="edgeLabel;resizable=0;html=1;align=left;verticalAlign=top;" parent="w8y_SFDK-2R7jtDNggBs-15" connectable="0" vertex="1">
          <mxGeometry x="-1" relative="1" as="geometry">
            <mxPoint x="-41" as="offset" />
          </mxGeometry>
        </mxCell>
        <mxCell id="w8y_SFDK-2R7jtDNggBs-17" value="" style="endArrow=none;html=1;endSize=12;startArrow=blockThin;startSize=14;startFill=1;rounded=0;endFill=0;exitX=0;exitY=0.5;exitDx=0;exitDy=0;entryX=1;entryY=0.5;entryDx=0;entryDy=0;" parent="WIyWlLk6GJQsqaUBKTNV-1" source="w8y_SFDK-2R7jtDNggBs-1" target="tBnS8gJTHhUAaLSSompM-63" edge="1">
          <mxGeometry x="0.125" y="-10" relative="1" as="geometry">
            <mxPoint x="575" y="-2140" as="sourcePoint" />
            <mxPoint x="471" y="-2140" as="targetPoint" />
            <mxPoint as="offset" />
          </mxGeometry>
        </mxCell>
        <mxCell id="w8y_SFDK-2R7jtDNggBs-18" value="1" style="edgeLabel;resizable=0;html=1;align=left;verticalAlign=top;" parent="w8y_SFDK-2R7jtDNggBs-17" connectable="0" vertex="1">
          <mxGeometry x="-1" relative="1" as="geometry">
            <mxPoint x="-41" as="offset" />
          </mxGeometry>
        </mxCell>
        <mxCell id="w8y_SFDK-2R7jtDNggBs-28" value="Component_AudioEmitter" style="swimlane;fontStyle=1;align=center;verticalAlign=top;childLayout=stackLayout;horizontal=1;startSize=26;horizontalStack=0;resizeParent=1;resizeParentMax=0;resizeLast=0;collapsible=1;marginBottom=0;whiteSpace=wrap;html=1;" parent="WIyWlLk6GJQsqaUBKTNV-1" vertex="1">
          <mxGeometry x="1717.5" y="213" width="340" height="398" as="geometry" />
        </mxCell>
        <mxCell id="w8y_SFDK-2R7jtDNggBs-29" value="- audio_clips: std::unordered_map&amp;lt;AudioClip, SoundIndex&amp;gt;" style="text;strokeColor=none;fillColor=none;align=left;verticalAlign=top;spacingLeft=4;spacingRight=4;overflow=hidden;rotatable=0;points=[[0,0.5],[1,0.5]];portConstraint=eastwest;whiteSpace=wrap;html=1;" parent="w8y_SFDK-2R7jtDNggBs-28" vertex="1">
          <mxGeometry y="26" width="340" height="26" as="geometry" />
        </mxCell>
        <mxCell id="w8y_SFDK-2R7jtDNggBs-30" value="" style="line;strokeWidth=1;fillColor=none;align=left;verticalAlign=middle;spacingTop=-1;spacingLeft=3;spacingRight=3;rotatable=0;labelPosition=right;points=[];portConstraint=eastwest;strokeColor=inherit;" parent="w8y_SFDK-2R7jtDNggBs-28" vertex="1">
          <mxGeometry y="52" width="340" height="8" as="geometry" />
        </mxCell>
        <mxCell id="FnCDFKwJpO0uUA8LM9jn-25" value="+ { override } Startable(): bool" style="text;strokeColor=none;fillColor=none;align=left;verticalAlign=top;spacingLeft=4;spacingRight=4;overflow=hidden;rotatable=0;points=[[0,0.5],[1,0.5]];portConstraint=eastwest;whiteSpace=wrap;html=1;" parent="w8y_SFDK-2R7jtDNggBs-28" vertex="1">
          <mxGeometry y="60" width="340" height="26" as="geometry" />
        </mxCell>
        <mxCell id="OVnKnol72kGfrmUa5j2k-0" value="+ { override } Updatable(): bool" style="text;strokeColor=none;fillColor=none;align=left;verticalAlign=top;spacingLeft=4;spacingRight=4;overflow=hidden;rotatable=0;points=[[0,0.5],[1,0.5]];portConstraint=eastwest;whiteSpace=wrap;html=1;" parent="w8y_SFDK-2R7jtDNggBs-28" vertex="1">
          <mxGeometry y="86" width="340" height="26" as="geometry" />
        </mxCell>
        <mxCell id="F8VIh5NcbDrvzz-t5l7X-2" value="+ Load(AudioClip): void" style="text;strokeColor=none;fillColor=none;align=left;verticalAlign=top;spacingLeft=4;spacingRight=4;overflow=hidden;rotatable=0;points=[[0,0.5],[1,0.5]];portConstraint=eastwest;whiteSpace=wrap;html=1;" parent="w8y_SFDK-2R7jtDNggBs-28" vertex="1">
          <mxGeometry y="112" width="340" height="26" as="geometry" />
        </mxCell>
        <mxCell id="OVnKnol72kGfrmUa5j2k-2" value="+ Load(std::vector&amp;lt;AudioClip&amp;gt;): void" style="text;strokeColor=none;fillColor=none;align=left;verticalAlign=top;spacingLeft=4;spacingRight=4;overflow=hidden;rotatable=0;points=[[0,0.5],[1,0.5]];portConstraint=eastwest;whiteSpace=wrap;html=1;" parent="w8y_SFDK-2R7jtDNggBs-28" vertex="1">
          <mxGeometry y="138" width="340" height="26" as="geometry" />
        </mxCell>
        <mxCell id="OVnKnol72kGfrmUa5j2k-1" value="+ Play(AudioClip, bool): void" style="text;strokeColor=none;fillColor=none;align=left;verticalAlign=top;spacingLeft=4;spacingRight=4;overflow=hidden;rotatable=0;points=[[0,0.5],[1,0.5]];portConstraint=eastwest;whiteSpace=wrap;html=1;" parent="w8y_SFDK-2R7jtDNggBs-28" vertex="1">
          <mxGeometry y="164" width="340" height="26" as="geometry" />
        </mxCell>
        <mxCell id="w8y_SFDK-2R7jtDNggBs-37" value="+ Stop(AudioClip): void" style="text;strokeColor=none;fillColor=none;align=left;verticalAlign=top;spacingLeft=4;spacingRight=4;overflow=hidden;rotatable=0;points=[[0,0.5],[1,0.5]];portConstraint=eastwest;whiteSpace=wrap;html=1;" parent="w8y_SFDK-2R7jtDNggBs-28" vertex="1">
          <mxGeometry y="190" width="340" height="26" as="geometry" />
        </mxCell>
        <mxCell id="OVnKnol72kGfrmUa5j2k-13" value="+ Stop(): void" style="text;strokeColor=none;fillColor=none;align=left;verticalAlign=top;spacingLeft=4;spacingRight=4;overflow=hidden;rotatable=0;points=[[0,0.5],[1,0.5]];portConstraint=eastwest;whiteSpace=wrap;html=1;" parent="w8y_SFDK-2R7jtDNggBs-28" vertex="1">
          <mxGeometry y="216" width="340" height="26" as="geometry" />
        </mxCell>
        <mxCell id="OVnKnol72kGfrmUa5j2k-7" value="+ SetVolume(AudioClip, float): void" style="text;strokeColor=none;fillColor=none;align=left;verticalAlign=top;spacingLeft=4;spacingRight=4;overflow=hidden;rotatable=0;points=[[0,0.5],[1,0.5]];portConstraint=eastwest;whiteSpace=wrap;html=1;" parent="w8y_SFDK-2R7jtDNggBs-28" vertex="1">
          <mxGeometry y="242" width="340" height="26" as="geometry" />
        </mxCell>
        <mxCell id="OVnKnol72kGfrmUa5j2k-8" value="+ SetVolume(float): void" style="text;strokeColor=none;fillColor=none;align=left;verticalAlign=top;spacingLeft=4;spacingRight=4;overflow=hidden;rotatable=0;points=[[0,0.5],[1,0.5]];portConstraint=eastwest;whiteSpace=wrap;html=1;" parent="w8y_SFDK-2R7jtDNggBs-28" vertex="1">
          <mxGeometry y="268" width="340" height="26" as="geometry" />
        </mxCell>
        <mxCell id="OVnKnol72kGfrmUa5j2k-12" value="+ SetFrequency(AudioClip, int): void" style="text;strokeColor=none;fillColor=none;align=left;verticalAlign=top;spacingLeft=4;spacingRight=4;overflow=hidden;rotatable=0;points=[[0,0.5],[1,0.5]];portConstraint=eastwest;whiteSpace=wrap;html=1;" parent="w8y_SFDK-2R7jtDNggBs-28" vertex="1">
          <mxGeometry y="294" width="340" height="26" as="geometry" />
        </mxCell>
        <mxCell id="OVnKnol72kGfrmUa5j2k-11" value="+ SetFrequency(int): void" style="text;strokeColor=none;fillColor=none;align=left;verticalAlign=top;spacingLeft=4;spacingRight=4;overflow=hidden;rotatable=0;points=[[0,0.5],[1,0.5]];portConstraint=eastwest;whiteSpace=wrap;html=1;" parent="w8y_SFDK-2R7jtDNggBs-28" vertex="1">
          <mxGeometry y="320" width="340" height="26" as="geometry" />
        </mxCell>
        <mxCell id="OVnKnol72kGfrmUa5j2k-10" value="+ SetPan(AudioClip, float): void" style="text;strokeColor=none;fillColor=none;align=left;verticalAlign=top;spacingLeft=4;spacingRight=4;overflow=hidden;rotatable=0;points=[[0,0.5],[1,0.5]];portConstraint=eastwest;whiteSpace=wrap;html=1;" parent="w8y_SFDK-2R7jtDNggBs-28" vertex="1">
          <mxGeometry y="346" width="340" height="26" as="geometry" />
        </mxCell>
        <mxCell id="OVnKnol72kGfrmUa5j2k-9" value="+ SetPan(float): void" style="text;strokeColor=none;fillColor=none;align=left;verticalAlign=top;spacingLeft=4;spacingRight=4;overflow=hidden;rotatable=0;points=[[0,0.5],[1,0.5]];portConstraint=eastwest;whiteSpace=wrap;html=1;" parent="w8y_SFDK-2R7jtDNggBs-28" vertex="1">
          <mxGeometry y="372" width="340" height="26" as="geometry" />
        </mxCell>
        <mxCell id="Dls-eGzetItIZ1qPlxtJ-1" value="&lt;i&gt;Component&lt;/i&gt;" style="html=1;whiteSpace=wrap;" parent="WIyWlLk6GJQsqaUBKTNV-1" vertex="1">
          <mxGeometry x="2193.72" y="-615.69" width="87.57" height="33.38" as="geometry" />
        </mxCell>
        <mxCell id="Dls-eGzetItIZ1qPlxtJ-2" value="Input Manager" style="swimlane;fontStyle=1;align=center;verticalAlign=top;childLayout=stackLayout;horizontal=1;startSize=26;horizontalStack=0;resizeParent=1;resizeParentMax=0;resizeLast=0;collapsible=1;marginBottom=0;whiteSpace=wrap;html=1;" parent="WIyWlLk6GJQsqaUBKTNV-1" vertex="1">
          <mxGeometry x="-190" y="-638" width="305" height="130" as="geometry" />
        </mxCell>
        <mxCell id="Dls-eGzetItIZ1qPlxtJ-5" value="- InputManager(): constructor" style="text;strokeColor=none;fillColor=none;align=left;verticalAlign=top;spacingLeft=4;spacingRight=4;overflow=hidden;rotatable=0;points=[[0,0.5],[1,0.5]];portConstraint=eastwest;whiteSpace=wrap;html=1;" parent="Dls-eGzetItIZ1qPlxtJ-2" vertex="1">
          <mxGeometry y="26" width="305" height="26" as="geometry" />
        </mxCell>
        <mxCell id="Dls-eGzetItIZ1qPlxtJ-6" value="+ { static } GetInstance(): InputManager&amp;amp;" style="text;strokeColor=none;fillColor=none;align=left;verticalAlign=top;spacingLeft=4;spacingRight=4;overflow=hidden;rotatable=0;points=[[0,0.5],[1,0.5]];portConstraint=eastwest;whiteSpace=wrap;html=1;" parent="Dls-eGzetItIZ1qPlxtJ-2" vertex="1">
          <mxGeometry y="52" width="305" height="26" as="geometry" />
        </mxCell>
        <mxCell id="Dls-eGzetItIZ1qPlxtJ-7" value="+ KeyPressed(KEYBOARD_KEY): bool" style="text;strokeColor=none;fillColor=none;align=left;verticalAlign=top;spacingLeft=4;spacingRight=4;overflow=hidden;rotatable=0;points=[[0,0.5],[1,0.5]];portConstraint=eastwest;whiteSpace=wrap;html=1;" parent="Dls-eGzetItIZ1qPlxtJ-2" vertex="1">
          <mxGeometry y="78" width="305" height="26" as="geometry" />
        </mxCell>
        <mxCell id="Dls-eGzetItIZ1qPlxtJ-8" value="+ Update(): void" style="text;strokeColor=none;fillColor=none;align=left;verticalAlign=top;spacingLeft=4;spacingRight=4;overflow=hidden;rotatable=0;points=[[0,0.5],[1,0.5]];portConstraint=eastwest;whiteSpace=wrap;html=1;" parent="Dls-eGzetItIZ1qPlxtJ-2" vertex="1">
          <mxGeometry y="104" width="305" height="26" as="geometry" />
        </mxCell>
        <mxCell id="Dls-eGzetItIZ1qPlxtJ-9" value="" style="endArrow=none;html=1;endSize=12;startArrow=blockThin;startSize=14;startFill=1;rounded=0;endFill=0;exitX=0.5;exitY=0;exitDx=0;exitDy=0;" parent="WIyWlLk6GJQsqaUBKTNV-1" source="Dls-eGzetItIZ1qPlxtJ-2" target="tBnS8gJTHhUAaLSSompM-21" edge="1">
          <mxGeometry x="0.125" y="-10" relative="1" as="geometry">
            <mxPoint x="17.5" y="-788" as="sourcePoint" />
            <mxPoint x="17.5" y="-690" as="targetPoint" />
            <mxPoint as="offset" />
          </mxGeometry>
        </mxCell>
        <mxCell id="Dls-eGzetItIZ1qPlxtJ-10" value="1" style="edgeLabel;resizable=0;html=1;align=left;verticalAlign=top;" parent="Dls-eGzetItIZ1qPlxtJ-9" connectable="0" vertex="1">
          <mxGeometry x="-1" relative="1" as="geometry">
            <mxPoint x="10" y="-44" as="offset" />
          </mxGeometry>
        </mxCell>
        <mxCell id="ChDK3uv7QOIiksjjmPV_-6" value="Component_RectangleCollider" style="swimlane;fontStyle=1;align=center;verticalAlign=top;childLayout=stackLayout;horizontal=1;startSize=26;horizontalStack=0;resizeParent=1;resizeParentMax=0;resizeLast=0;collapsible=1;marginBottom=0;whiteSpace=wrap;html=1;" parent="WIyWlLk6GJQsqaUBKTNV-1" vertex="1">
          <mxGeometry x="970" y="800" width="300" height="164" as="geometry" />
        </mxCell>
        <mxCell id="ChDK3uv7QOIiksjjmPV_-42" value="- shape: std::shared_ptr&amp;lt;Rectangle2D&amp;gt;" style="text;strokeColor=none;fillColor=none;align=left;verticalAlign=top;spacingLeft=4;spacingRight=4;overflow=hidden;rotatable=0;points=[[0,0.5],[1,0.5]];portConstraint=eastwest;whiteSpace=wrap;html=1;" parent="ChDK3uv7QOIiksjjmPV_-6" vertex="1">
          <mxGeometry y="26" width="300" height="26" as="geometry" />
        </mxCell>
        <mxCell id="ChDK3uv7QOIiksjjmPV_-7" value="+ width: float" style="text;strokeColor=none;fillColor=none;align=left;verticalAlign=top;spacingLeft=4;spacingRight=4;overflow=hidden;rotatable=0;points=[[0,0.5],[1,0.5]];portConstraint=eastwest;whiteSpace=wrap;html=1;" parent="ChDK3uv7QOIiksjjmPV_-6" vertex="1">
          <mxGeometry y="52" width="300" height="26" as="geometry" />
        </mxCell>
        <mxCell id="ChDK3uv7QOIiksjjmPV_-41" value="+ height: float" style="text;strokeColor=none;fillColor=none;align=left;verticalAlign=top;spacingLeft=4;spacingRight=4;overflow=hidden;rotatable=0;points=[[0,0.5],[1,0.5]];portConstraint=eastwest;whiteSpace=wrap;html=1;" parent="ChDK3uv7QOIiksjjmPV_-6" vertex="1">
          <mxGeometry y="78" width="300" height="26" as="geometry" />
        </mxCell>
        <mxCell id="ChDK3uv7QOIiksjjmPV_-8" value="" style="line;strokeWidth=1;fillColor=none;align=left;verticalAlign=middle;spacingTop=-1;spacingLeft=3;spacingRight=3;rotatable=0;labelPosition=right;points=[];portConstraint=eastwest;strokeColor=inherit;" parent="ChDK3uv7QOIiksjjmPV_-6" vertex="1">
          <mxGeometry y="104" width="300" height="8" as="geometry" />
        </mxCell>
        <mxCell id="ChDK3uv7QOIiksjjmPV_-40" value="# { override } GetShape(): std::shared_ptr&amp;lt;IShape2D&amp;gt;" style="text;strokeColor=none;fillColor=none;align=left;verticalAlign=top;spacingLeft=4;spacingRight=4;overflow=hidden;rotatable=0;points=[[0,0.5],[1,0.5]];portConstraint=eastwest;whiteSpace=wrap;html=1;" parent="ChDK3uv7QOIiksjjmPV_-6" vertex="1">
          <mxGeometry y="112" width="300" height="26" as="geometry" />
        </mxCell>
        <mxCell id="ChDK3uv7QOIiksjjmPV_-43" value="# { override } UpdatePosition(): void" style="text;strokeColor=none;fillColor=none;align=left;verticalAlign=top;spacingLeft=4;spacingRight=4;overflow=hidden;rotatable=0;points=[[0,0.5],[1,0.5]];portConstraint=eastwest;whiteSpace=wrap;html=1;" parent="ChDK3uv7QOIiksjjmPV_-6" vertex="1">
          <mxGeometry y="138" width="300" height="26" as="geometry" />
        </mxCell>
        <mxCell id="ChDK3uv7QOIiksjjmPV_-10" value="" style="endArrow=block;endSize=16;endFill=0;html=1;rounded=0;exitX=0.5;exitY=0;exitDx=0;exitDy=0;" parent="WIyWlLk6GJQsqaUBKTNV-1" source="ChDK3uv7QOIiksjjmPV_-68" target="6qDn0OYKWrzkokKBHu0U-10" edge="1">
          <mxGeometry width="160" relative="1" as="geometry">
            <mxPoint x="1954.33" y="270" as="sourcePoint" />
            <mxPoint x="1957.5" y="230" as="targetPoint" />
            <mxPoint as="offset" />
          </mxGeometry>
        </mxCell>
        <mxCell id="ChDK3uv7QOIiksjjmPV_-12" value="" style="endArrow=none;startArrow=none;endFill=0;startFill=0;html=1;rounded=0;exitX=0.5;exitY=0;exitDx=0;exitDy=0;entryX=0;entryY=0.5;entryDx=0;entryDy=0;" parent="WIyWlLk6GJQsqaUBKTNV-1" source="M1MSdD-5XBLC1a_fBFbh-35" target="ChDK3uv7QOIiksjjmPV_-16" edge="1">
          <mxGeometry width="160" relative="1" as="geometry">
            <mxPoint x="1130" y="-1020" as="sourcePoint" />
            <mxPoint x="1650" y="-1085" as="targetPoint" />
            <Array as="points">
              <mxPoint x="723" y="-993" />
            </Array>
          </mxGeometry>
        </mxCell>
        <mxCell id="ChDK3uv7QOIiksjjmPV_-14" value="" style="endArrow=none;startArrow=none;endFill=0;startFill=0;html=1;rounded=0;exitX=0.5;exitY=0;exitDx=0;exitDy=0;entryX=0;entryY=0.5;entryDx=0;entryDy=0;" parent="WIyWlLk6GJQsqaUBKTNV-1" source="KMpKYzbZWhltmwKOfllN-14" target="ChDK3uv7QOIiksjjmPV_-16" edge="1">
          <mxGeometry width="160" relative="1" as="geometry">
            <mxPoint x="1180" y="-945" as="sourcePoint" />
            <mxPoint x="1650" y="-1085" as="targetPoint" />
            <Array as="points">
              <mxPoint x="1446" y="-993" />
            </Array>
          </mxGeometry>
        </mxCell>
        <mxCell id="ChDK3uv7QOIiksjjmPV_-15" value="" style="endArrow=none;startArrow=none;endFill=0;startFill=0;html=1;rounded=0;exitX=0.5;exitY=0;exitDx=0;exitDy=0;entryX=1;entryY=0.5;entryDx=0;entryDy=0;" parent="WIyWlLk6GJQsqaUBKTNV-1" source="KMpKYzbZWhltmwKOfllN-4" target="ChDK3uv7QOIiksjjmPV_-16" edge="1">
          <mxGeometry width="160" relative="1" as="geometry">
            <mxPoint x="2120" y="-925" as="sourcePoint" />
            <mxPoint x="1760" y="-1085" as="targetPoint" />
            <Array as="points">
              <mxPoint x="2238" y="-993" />
            </Array>
          </mxGeometry>
        </mxCell>
        <mxCell id="ChDK3uv7QOIiksjjmPV_-16" value="Extends" style="rounded=1;whiteSpace=wrap;html=1;" parent="WIyWlLk6GJQsqaUBKTNV-1" vertex="1">
          <mxGeometry x="1662.5" y="-1008" width="65" height="30" as="geometry" />
        </mxCell>
        <mxCell id="ChDK3uv7QOIiksjjmPV_-17" value="" style="endArrow=none;startArrow=none;endFill=0;startFill=0;html=1;rounded=0;exitX=0.5;exitY=0;exitDx=0;exitDy=0;entryX=1;entryY=0.5;entryDx=0;entryDy=0;" parent="WIyWlLk6GJQsqaUBKTNV-1" source="M1MSdD-5XBLC1a_fBFbh-7" target="ChDK3uv7QOIiksjjmPV_-16" edge="1">
          <mxGeometry width="160" relative="1" as="geometry">
            <mxPoint x="2738" y="-870" as="sourcePoint" />
            <mxPoint x="2340" y="-1070" as="targetPoint" />
            <Array as="points">
              <mxPoint x="2855" y="-993" />
            </Array>
          </mxGeometry>
        </mxCell>
        <mxCell id="ChDK3uv7QOIiksjjmPV_-25" style="edgeStyle=orthogonalEdgeStyle;rounded=0;orthogonalLoop=1;jettySize=auto;html=1;exitX=0.5;exitY=1;exitDx=0;exitDy=0;" parent="WIyWlLk6GJQsqaUBKTNV-1" edge="1">
          <mxGeometry relative="1" as="geometry">
            <mxPoint x="380.00000000000045" y="-2314" as="sourcePoint" />
            <mxPoint x="380.00000000000045" y="-2314" as="targetPoint" />
          </mxGeometry>
        </mxCell>
        <mxCell id="ChDK3uv7QOIiksjjmPV_-34" value="" style="endArrow=none;html=1;rounded=0;entryX=0;entryY=0.5;entryDx=0;entryDy=0;exitX=0.5;exitY=0;exitDx=0;exitDy=0;" parent="WIyWlLk6GJQsqaUBKTNV-1" source="ChDK3uv7QOIiksjjmPV_-6" target="ChDK3uv7QOIiksjjmPV_-68" edge="1">
          <mxGeometry width="50" height="50" relative="1" as="geometry">
            <mxPoint x="1660" y="711" as="sourcePoint" />
            <mxPoint x="1820" y="449" as="targetPoint" />
            <Array as="points">
              <mxPoint x="1120" y="735" />
            </Array>
          </mxGeometry>
        </mxCell>
        <mxCell id="ChDK3uv7QOIiksjjmPV_-35" value="Component_CircleCollider" style="swimlane;fontStyle=1;align=center;verticalAlign=top;childLayout=stackLayout;horizontal=1;startSize=26;horizontalStack=0;resizeParent=1;resizeParentMax=0;resizeLast=0;collapsible=1;marginBottom=0;whiteSpace=wrap;html=1;" parent="WIyWlLk6GJQsqaUBKTNV-1" vertex="1">
          <mxGeometry x="1457.5" y="802" width="310" height="138" as="geometry" />
        </mxCell>
        <mxCell id="ChDK3uv7QOIiksjjmPV_-46" value="- shape: std::shared_ptr&amp;lt;Circle2D&amp;gt;" style="text;strokeColor=none;fillColor=none;align=left;verticalAlign=top;spacingLeft=4;spacingRight=4;overflow=hidden;rotatable=0;points=[[0,0.5],[1,0.5]];portConstraint=eastwest;whiteSpace=wrap;html=1;" parent="ChDK3uv7QOIiksjjmPV_-35" vertex="1">
          <mxGeometry y="26" width="310" height="26" as="geometry" />
        </mxCell>
        <mxCell id="ChDK3uv7QOIiksjjmPV_-47" value="+ radius: float" style="text;strokeColor=none;fillColor=none;align=left;verticalAlign=top;spacingLeft=4;spacingRight=4;overflow=hidden;rotatable=0;points=[[0,0.5],[1,0.5]];portConstraint=eastwest;whiteSpace=wrap;html=1;" parent="ChDK3uv7QOIiksjjmPV_-35" vertex="1">
          <mxGeometry y="52" width="310" height="26" as="geometry" />
        </mxCell>
        <mxCell id="ChDK3uv7QOIiksjjmPV_-37" value="" style="line;strokeWidth=1;fillColor=none;align=left;verticalAlign=middle;spacingTop=-1;spacingLeft=3;spacingRight=3;rotatable=0;labelPosition=right;points=[];portConstraint=eastwest;strokeColor=inherit;" parent="ChDK3uv7QOIiksjjmPV_-35" vertex="1">
          <mxGeometry y="78" width="310" height="8" as="geometry" />
        </mxCell>
        <mxCell id="ChDK3uv7QOIiksjjmPV_-44" value="# { override } GetShape(): std::shared_ptr&amp;lt;IShape2D&amp;gt;" style="text;strokeColor=none;fillColor=none;align=left;verticalAlign=top;spacingLeft=4;spacingRight=4;overflow=hidden;rotatable=0;points=[[0,0.5],[1,0.5]];portConstraint=eastwest;whiteSpace=wrap;html=1;" parent="ChDK3uv7QOIiksjjmPV_-35" vertex="1">
          <mxGeometry y="86" width="310" height="26" as="geometry" />
        </mxCell>
        <mxCell id="ChDK3uv7QOIiksjjmPV_-45" value="# { override } UpdatePosition(): void" style="text;strokeColor=none;fillColor=none;align=left;verticalAlign=top;spacingLeft=4;spacingRight=4;overflow=hidden;rotatable=0;points=[[0,0.5],[1,0.5]];portConstraint=eastwest;whiteSpace=wrap;html=1;" parent="ChDK3uv7QOIiksjjmPV_-35" vertex="1">
          <mxGeometry y="112" width="310" height="26" as="geometry" />
        </mxCell>
        <mxCell id="ChDK3uv7QOIiksjjmPV_-39" value="" style="endArrow=none;html=1;rounded=0;entryX=1;entryY=0.5;entryDx=0;entryDy=0;exitX=0.5;exitY=0;exitDx=0;exitDy=0;" parent="WIyWlLk6GJQsqaUBKTNV-1" source="ChDK3uv7QOIiksjjmPV_-35" target="ChDK3uv7QOIiksjjmPV_-68" edge="1">
          <mxGeometry width="50" height="50" relative="1" as="geometry">
            <mxPoint x="1615" y="800" as="sourcePoint" />
            <mxPoint x="1880" y="419" as="targetPoint" />
            <Array as="points">
              <mxPoint x="1612.5" y="735" />
            </Array>
          </mxGeometry>
        </mxCell>
        <mxCell id="ChDK3uv7QOIiksjjmPV_-49" value="&lt;i&gt;Scene&lt;/i&gt;" style="html=1;whiteSpace=wrap;" parent="WIyWlLk6GJQsqaUBKTNV-1" vertex="1">
          <mxGeometry x="342.5" y="-2520" width="75" height="40" as="geometry" />
        </mxCell>
        <mxCell id="ChDK3uv7QOIiksjjmPV_-52" value="Extends" style="endArrow=block;endSize=16;endFill=0;html=1;rounded=0;" parent="WIyWlLk6GJQsqaUBKTNV-1" source="ChDK3uv7QOIiksjjmPV_-53" target="M1MSdD-5XBLC1a_fBFbh-35" edge="1">
          <mxGeometry width="160" relative="1" as="geometry">
            <mxPoint x="739.17" y="-531" as="sourcePoint" />
            <mxPoint x="739.17" y="-658" as="targetPoint" />
          </mxGeometry>
        </mxCell>
        <mxCell id="ChDK3uv7QOIiksjjmPV_-53" value="All Scenes" style="html=1;whiteSpace=wrap;" parent="WIyWlLk6GJQsqaUBKTNV-1" vertex="1">
          <mxGeometry x="676.25" y="-530" width="92.5" height="36" as="geometry" />
        </mxCell>
        <mxCell id="ChDK3uv7QOIiksjjmPV_-55" value="All Components" style="html=1;whiteSpace=wrap;" parent="WIyWlLk6GJQsqaUBKTNV-1" vertex="1">
          <mxGeometry x="2800" y="-589.38" width="110" height="36" as="geometry" />
        </mxCell>
        <mxCell id="ChDK3uv7QOIiksjjmPV_-56" value="Extends" style="endArrow=block;endSize=16;endFill=0;html=1;rounded=0;" parent="WIyWlLk6GJQsqaUBKTNV-1" source="ChDK3uv7QOIiksjjmPV_-55" target="M1MSdD-5XBLC1a_fBFbh-7" edge="1">
          <mxGeometry width="160" relative="1" as="geometry">
            <mxPoint x="2831.67" y="-478" as="sourcePoint" />
            <mxPoint x="2815.5" y="-637" as="targetPoint" />
          </mxGeometry>
        </mxCell>
        <mxCell id="ChDK3uv7QOIiksjjmPV_-57" value="Extends" style="rounded=1;whiteSpace=wrap;html=1;" parent="WIyWlLk6GJQsqaUBKTNV-1" vertex="1">
          <mxGeometry x="347.5" y="-2400" width="65" height="30" as="geometry" />
        </mxCell>
        <mxCell id="ChDK3uv7QOIiksjjmPV_-58" value="" style="endArrow=block;endSize=16;endFill=0;html=1;rounded=0;entryX=0.5;entryY=1;entryDx=0;entryDy=0;exitX=0.5;exitY=0;exitDx=0;exitDy=0;" parent="WIyWlLk6GJQsqaUBKTNV-1" source="ChDK3uv7QOIiksjjmPV_-57" target="ChDK3uv7QOIiksjjmPV_-49" edge="1">
          <mxGeometry width="160" relative="1" as="geometry">
            <mxPoint x="157.5" y="-2370" as="sourcePoint" />
            <mxPoint x="317.5" y="-2370" as="targetPoint" />
          </mxGeometry>
        </mxCell>
        <mxCell id="ChDK3uv7QOIiksjjmPV_-60" value="" style="endArrow=none;html=1;rounded=0;entryX=0.5;entryY=1;entryDx=0;entryDy=0;exitX=0.5;exitY=0;exitDx=0;exitDy=0;" parent="WIyWlLk6GJQsqaUBKTNV-1" source="tBnS8gJTHhUAaLSSompM-62" target="ChDK3uv7QOIiksjjmPV_-57" edge="1">
          <mxGeometry width="50" height="50" relative="1" as="geometry">
            <mxPoint x="177.5" y="-2330" as="sourcePoint" />
            <mxPoint x="227.5" y="-2380" as="targetPoint" />
          </mxGeometry>
        </mxCell>
        <mxCell id="ChDK3uv7QOIiksjjmPV_-61" value="" style="endArrow=none;html=1;rounded=0;entryX=0;entryY=0.5;entryDx=0;entryDy=0;exitX=0.5;exitY=0;exitDx=0;exitDy=0;" parent="WIyWlLk6GJQsqaUBKTNV-1" source="M1MSdD-5XBLC1a_fBFbh-49" target="ChDK3uv7QOIiksjjmPV_-57" edge="1">
          <mxGeometry width="50" height="50" relative="1" as="geometry">
            <mxPoint x="87.5" y="-2410" as="sourcePoint" />
            <mxPoint x="137.5" y="-2460" as="targetPoint" />
            <Array as="points">
              <mxPoint x="122.5" y="-2385" />
            </Array>
          </mxGeometry>
        </mxCell>
        <mxCell id="ChDK3uv7QOIiksjjmPV_-62" value="" style="endArrow=none;html=1;rounded=0;entryX=1;entryY=0.5;entryDx=0;entryDy=0;exitX=0.5;exitY=0;exitDx=0;exitDy=0;" parent="WIyWlLk6GJQsqaUBKTNV-1" source="w8y_SFDK-2R7jtDNggBs-0" target="ChDK3uv7QOIiksjjmPV_-57" edge="1">
          <mxGeometry width="50" height="50" relative="1" as="geometry">
            <mxPoint x="557.5" y="-2315" as="sourcePoint" />
            <mxPoint x="760.5" y="-2530" as="targetPoint" />
            <Array as="points">
              <mxPoint x="640.5" y="-2385" />
            </Array>
          </mxGeometry>
        </mxCell>
        <mxCell id="ChDK3uv7QOIiksjjmPV_-63" value="Engine" style="shape=umlFrame;whiteSpace=wrap;html=1;pointerEvents=0;width=100;height=40;" parent="WIyWlLk6GJQsqaUBKTNV-1" vertex="1">
          <mxGeometry x="-360" y="-1740" width="3470" height="3230" as="geometry" />
        </mxCell>
        <mxCell id="ChDK3uv7QOIiksjjmPV_-64" value="When Required" style="html=1;whiteSpace=wrap;" parent="WIyWlLk6GJQsqaUBKTNV-1" vertex="1">
          <mxGeometry x="-97.5" y="-1292" width="110" height="42" as="geometry" />
        </mxCell>
        <mxCell id="ChDK3uv7QOIiksjjmPV_-65" value="" style="endArrow=blockThin;html=1;endSize=12;startArrow=none;startSize=14;startFill=0;rounded=0;endFill=1;exitX=0.5;exitY=0;exitDx=0;exitDy=0;entryX=0.5;entryY=1;entryDx=0;entryDy=0;" parent="WIyWlLk6GJQsqaUBKTNV-1" source="ChDK3uv7QOIiksjjmPV_-64" target="tBnS8gJTHhUAaLSSompM-82" edge="1">
          <mxGeometry x="0.125" y="-10" relative="1" as="geometry">
            <mxPoint x="-192.5" y="-1388.47" as="sourcePoint" />
            <mxPoint x="-302.5" y="-1388.47" as="targetPoint" />
            <mxPoint as="offset" />
          </mxGeometry>
        </mxCell>
        <mxCell id="ChDK3uv7QOIiksjjmPV_-66" value="*" style="edgeLabel;resizable=0;html=1;align=left;verticalAlign=top;" parent="ChDK3uv7QOIiksjjmPV_-65" connectable="0" vertex="1">
          <mxGeometry x="-1" relative="1" as="geometry">
            <mxPoint x="13" y="-120" as="offset" />
          </mxGeometry>
        </mxCell>
        <mxCell id="ChDK3uv7QOIiksjjmPV_-67" value="Game" style="shape=umlFrame;whiteSpace=wrap;html=1;pointerEvents=0;width=80;height=40;" parent="WIyWlLk6GJQsqaUBKTNV-1" vertex="1">
          <mxGeometry x="-122.5" y="-2630" width="4132.5" height="760" as="geometry" />
        </mxCell>
        <mxCell id="ChDK3uv7QOIiksjjmPV_-68" value="Extends" style="rounded=1;whiteSpace=wrap;html=1;" parent="WIyWlLk6GJQsqaUBKTNV-1" vertex="1">
          <mxGeometry x="1312.5" y="720" width="65" height="30" as="geometry" />
        </mxCell>
        <mxCell id="ChDK3uv7QOIiksjjmPV_-69" value="" style="endArrow=blockThin;html=1;endSize=12;startArrow=none;startSize=14;startFill=0;rounded=0;endFill=1;exitX=0;exitY=0.5;exitDx=0;exitDy=0;entryX=1;entryY=0.5;entryDx=0;entryDy=0;" parent="WIyWlLk6GJQsqaUBKTNV-1" source="6qDn0OYKWrzkokKBHu0U-11" target="M1MSdD-5XBLC1a_fBFbh-109" edge="1">
          <mxGeometry x="0.125" y="-10" relative="1" as="geometry">
            <mxPoint x="897.5" y="403" as="sourcePoint" />
            <mxPoint x="1037.5" y="403" as="targetPoint" />
            <mxPoint as="offset" />
          </mxGeometry>
        </mxCell>
        <mxCell id="ChDK3uv7QOIiksjjmPV_-70" value="1" style="edgeLabel;resizable=0;html=1;align=right;verticalAlign=top;" parent="ChDK3uv7QOIiksjjmPV_-69" connectable="0" vertex="1">
          <mxGeometry x="1" relative="1" as="geometry">
            <mxPoint x="40" as="offset" />
          </mxGeometry>
        </mxCell>
        <mxCell id="ChDK3uv7QOIiksjjmPV_-73" value="Extends" style="rounded=1;whiteSpace=wrap;html=1;" parent="WIyWlLk6GJQsqaUBKTNV-1" vertex="1">
          <mxGeometry x="1487.5" y="98" width="65" height="30" as="geometry" />
        </mxCell>
        <mxCell id="ChDK3uv7QOIiksjjmPV_-74" value="" style="endArrow=block;endSize=16;endFill=0;html=1;rounded=0;exitX=0.5;exitY=0;exitDx=0;exitDy=0;entryX=0.5;entryY=1;entryDx=0;entryDy=0;" parent="WIyWlLk6GJQsqaUBKTNV-1" source="ChDK3uv7QOIiksjjmPV_-73" target="ChDK3uv7QOIiksjjmPV_-75" edge="1">
          <mxGeometry width="160" relative="1" as="geometry">
            <mxPoint x="1361" y="44" as="sourcePoint" />
            <mxPoint x="1360" y="-12" as="targetPoint" />
            <mxPoint as="offset" />
          </mxGeometry>
        </mxCell>
        <mxCell id="ChDK3uv7QOIiksjjmPV_-75" value="&lt;i&gt;Component&lt;/i&gt;" style="html=1;whiteSpace=wrap;" parent="WIyWlLk6GJQsqaUBKTNV-1" vertex="1">
          <mxGeometry x="1465" y="-32" width="110" height="50" as="geometry" />
        </mxCell>
        <mxCell id="ChDK3uv7QOIiksjjmPV_-76" value="" style="endArrow=none;html=1;rounded=0;exitX=0.5;exitY=0;exitDx=0;exitDy=0;entryX=0;entryY=0.5;entryDx=0;entryDy=0;" parent="WIyWlLk6GJQsqaUBKTNV-1" source="6qDn0OYKWrzkokKBHu0U-10" target="ChDK3uv7QOIiksjjmPV_-73" edge="1">
          <mxGeometry width="50" height="50" relative="1" as="geometry">
            <mxPoint x="1227.5" y="178" as="sourcePoint" />
            <mxPoint x="1277.5" y="128" as="targetPoint" />
            <Array as="points">
              <mxPoint x="1345.5" y="113" />
            </Array>
          </mxGeometry>
        </mxCell>
        <mxCell id="ChDK3uv7QOIiksjjmPV_-77" value="" style="endArrow=none;html=1;rounded=0;exitX=0.5;exitY=0;exitDx=0;exitDy=0;entryX=0;entryY=0.5;entryDx=0;entryDy=0;" parent="WIyWlLk6GJQsqaUBKTNV-1" source="F8VIh5NcbDrvzz-t5l7X-5" target="ChDK3uv7QOIiksjjmPV_-73" edge="1">
          <mxGeometry width="50" height="50" relative="1" as="geometry">
            <mxPoint x="867.5" y="213" as="sourcePoint" />
            <mxPoint x="1497.5" y="83" as="targetPoint" />
            <Array as="points">
              <mxPoint x="865.5" y="113" />
            </Array>
          </mxGeometry>
        </mxCell>
        <mxCell id="ChDK3uv7QOIiksjjmPV_-78" value="" style="endArrow=none;html=1;rounded=0;exitX=0.5;exitY=0;exitDx=0;exitDy=0;entryX=0;entryY=0.5;entryDx=0;entryDy=0;" parent="WIyWlLk6GJQsqaUBKTNV-1" source="6qDn0OYKWrzkokKBHu0U-0" target="ChDK3uv7QOIiksjjmPV_-73" edge="1">
          <mxGeometry width="50" height="50" relative="1" as="geometry">
            <mxPoint x="877.5" y="223" as="sourcePoint" />
            <mxPoint x="1497.5" y="83" as="targetPoint" />
            <Array as="points">
              <mxPoint x="547.5" y="113" />
            </Array>
          </mxGeometry>
        </mxCell>
        <mxCell id="ChDK3uv7QOIiksjjmPV_-79" value="" style="endArrow=none;html=1;rounded=0;exitX=0.5;exitY=0;exitDx=0;exitDy=0;entryX=1;entryY=0.5;entryDx=0;entryDy=0;" parent="WIyWlLk6GJQsqaUBKTNV-1" source="w8y_SFDK-2R7jtDNggBs-28" target="ChDK3uv7QOIiksjjmPV_-73" edge="1">
          <mxGeometry width="50" height="50" relative="1" as="geometry">
            <mxPoint x="1877.5" y="158" as="sourcePoint" />
            <mxPoint x="2019.5" y="18" as="targetPoint" />
            <Array as="points">
              <mxPoint x="1887.5" y="113" />
            </Array>
          </mxGeometry>
        </mxCell>
        <mxCell id="F8VIh5NcbDrvzz-t5l7X-5" value="Component_Transform" style="swimlane;fontStyle=1;align=center;verticalAlign=top;childLayout=stackLayout;horizontal=1;startSize=26;horizontalStack=0;resizeParent=1;resizeParentMax=0;resizeLast=0;collapsible=1;marginBottom=0;whiteSpace=wrap;html=1;" parent="WIyWlLk6GJQsqaUBKTNV-1" vertex="1">
          <mxGeometry x="772.5" y="213" width="187.5" height="190" as="geometry" />
        </mxCell>
        <mxCell id="M1MSdD-5XBLC1a_fBFbh-109" value="+ position: Vector2D" style="text;strokeColor=none;fillColor=none;align=left;verticalAlign=top;spacingLeft=4;spacingRight=4;overflow=hidden;rotatable=0;points=[[0,0.5],[1,0.5]];portConstraint=eastwest;whiteSpace=wrap;html=1;" parent="F8VIh5NcbDrvzz-t5l7X-5" vertex="1">
          <mxGeometry y="26" width="187.5" height="26" as="geometry" />
        </mxCell>
        <mxCell id="tBnS8gJTHhUAaLSSompM-0" value="+ rotation: float" style="text;strokeColor=none;fillColor=none;align=left;verticalAlign=top;spacingLeft=4;spacingRight=4;overflow=hidden;rotatable=0;points=[[0,0.5],[1,0.5]];portConstraint=eastwest;whiteSpace=wrap;html=1;" parent="F8VIh5NcbDrvzz-t5l7X-5" vertex="1">
          <mxGeometry y="52" width="187.5" height="26" as="geometry" />
        </mxCell>
        <mxCell id="tBnS8gJTHhUAaLSSompM-1" value="+ scale: float" style="text;strokeColor=none;fillColor=none;align=left;verticalAlign=top;spacingLeft=4;spacingRight=4;overflow=hidden;rotatable=0;points=[[0,0.5],[1,0.5]];portConstraint=eastwest;whiteSpace=wrap;html=1;" parent="F8VIh5NcbDrvzz-t5l7X-5" vertex="1">
          <mxGeometry y="78" width="187.5" height="26" as="geometry" />
        </mxCell>
        <mxCell id="F8VIh5NcbDrvzz-t5l7X-7" value="" style="line;strokeWidth=1;fillColor=none;align=left;verticalAlign=middle;spacingTop=-1;spacingLeft=3;spacingRight=3;rotatable=0;labelPosition=right;points=[];portConstraint=eastwest;strokeColor=inherit;" parent="F8VIh5NcbDrvzz-t5l7X-5" vertex="1">
          <mxGeometry y="104" width="187.5" height="8" as="geometry" />
        </mxCell>
        <mxCell id="F8VIh5NcbDrvzz-t5l7X-8" value="+ method(type): type" style="text;strokeColor=none;fillColor=none;align=left;verticalAlign=top;spacingLeft=4;spacingRight=4;overflow=hidden;rotatable=0;points=[[0,0.5],[1,0.5]];portConstraint=eastwest;whiteSpace=wrap;html=1;" parent="F8VIh5NcbDrvzz-t5l7X-5" vertex="1">
          <mxGeometry y="112" width="187.5" height="26" as="geometry" />
        </mxCell>
        <mxCell id="F8VIh5NcbDrvzz-t5l7X-9" value="+ { override } Startable(): bool" style="text;strokeColor=none;fillColor=none;align=left;verticalAlign=top;spacingLeft=4;spacingRight=4;overflow=hidden;rotatable=0;points=[[0,0.5],[1,0.5]];portConstraint=eastwest;whiteSpace=wrap;html=1;" parent="F8VIh5NcbDrvzz-t5l7X-5" vertex="1">
          <mxGeometry y="138" width="187.5" height="26" as="geometry" />
        </mxCell>
        <mxCell id="FnCDFKwJpO0uUA8LM9jn-23" value="+ { override } Updatable(): bool" style="text;strokeColor=none;fillColor=none;align=left;verticalAlign=top;spacingLeft=4;spacingRight=4;overflow=hidden;rotatable=0;points=[[0,0.5],[1,0.5]];portConstraint=eastwest;whiteSpace=wrap;html=1;" parent="F8VIh5NcbDrvzz-t5l7X-5" vertex="1">
          <mxGeometry y="164" width="187.5" height="26" as="geometry" />
        </mxCell>
        <mxCell id="F8VIh5NcbDrvzz-t5l7X-11" value="CollisionManager" style="swimlane;fontStyle=1;align=center;verticalAlign=top;childLayout=stackLayout;horizontal=1;startSize=26;horizontalStack=0;resizeParent=1;resizeParentMax=0;resizeLast=0;collapsible=1;marginBottom=0;whiteSpace=wrap;html=1;" parent="WIyWlLk6GJQsqaUBKTNV-1" vertex="1">
          <mxGeometry x="1240" y="-486.88" width="410" height="138" as="geometry" />
        </mxCell>
        <mxCell id="F8VIh5NcbDrvzz-t5l7X-12" value="+ collision_components: std::vector&amp;lt;std::shared_ptr&amp;lt;ComponentCollider&amp;gt;&amp;gt;" style="text;strokeColor=none;fillColor=none;align=left;verticalAlign=top;spacingLeft=4;spacingRight=4;overflow=hidden;rotatable=0;points=[[0,0.5],[1,0.5]];portConstraint=eastwest;whiteSpace=wrap;html=1;" parent="F8VIh5NcbDrvzz-t5l7X-11" vertex="1">
          <mxGeometry y="26" width="410" height="26" as="geometry" />
        </mxCell>
        <mxCell id="F8VIh5NcbDrvzz-t5l7X-13" value="" style="line;strokeWidth=1;fillColor=none;align=left;verticalAlign=middle;spacingTop=-1;spacingLeft=3;spacingRight=3;rotatable=0;labelPosition=right;points=[];portConstraint=eastwest;strokeColor=inherit;" parent="F8VIh5NcbDrvzz-t5l7X-11" vertex="1">
          <mxGeometry y="52" width="410" height="8" as="geometry" />
        </mxCell>
        <mxCell id="F8VIh5NcbDrvzz-t5l7X-14" value="+ HandleCollisions(): void" style="text;strokeColor=none;fillColor=none;align=left;verticalAlign=top;spacingLeft=4;spacingRight=4;overflow=hidden;rotatable=0;points=[[0,0.5],[1,0.5]];portConstraint=eastwest;whiteSpace=wrap;html=1;" parent="F8VIh5NcbDrvzz-t5l7X-11" vertex="1">
          <mxGeometry y="60" width="410" height="26" as="geometry" />
        </mxCell>
        <mxCell id="F8VIh5NcbDrvzz-t5l7X-15" value="+ RegisterCollider(std::shared_ptr&amp;lt;ComponentCollider&amp;gt;): void" style="text;strokeColor=none;fillColor=none;align=left;verticalAlign=top;spacingLeft=4;spacingRight=4;overflow=hidden;rotatable=0;points=[[0,0.5],[1,0.5]];portConstraint=eastwest;whiteSpace=wrap;html=1;" parent="F8VIh5NcbDrvzz-t5l7X-11" vertex="1">
          <mxGeometry y="86" width="410" height="26" as="geometry" />
        </mxCell>
        <mxCell id="F8VIh5NcbDrvzz-t5l7X-17" value="+ UnregisterCollider(std::shared_ptr&amp;lt;ComponentCollider&amp;gt;): void" style="text;strokeColor=none;fillColor=none;align=left;verticalAlign=top;spacingLeft=4;spacingRight=4;overflow=hidden;rotatable=0;points=[[0,0.5],[1,0.5]];portConstraint=eastwest;whiteSpace=wrap;html=1;" parent="F8VIh5NcbDrvzz-t5l7X-11" vertex="1">
          <mxGeometry y="112" width="410" height="26" as="geometry" />
        </mxCell>
        <mxCell id="F8VIh5NcbDrvzz-t5l7X-18" value="" style="endArrow=blockThin;html=1;endSize=12;startArrow=none;startSize=14;startFill=0;rounded=0;endFill=1;entryX=0.5;entryY=0;entryDx=0;entryDy=0;" parent="WIyWlLk6GJQsqaUBKTNV-1" source="KMpKYzbZWhltmwKOfllN-14" target="F8VIh5NcbDrvzz-t5l7X-11" edge="1">
          <mxGeometry x="0.125" y="-10" relative="1" as="geometry">
            <mxPoint x="1580.5" y="-522.9" as="sourcePoint" />
            <mxPoint x="1727.5" y="-523.9" as="targetPoint" />
            <mxPoint as="offset" />
          </mxGeometry>
        </mxCell>
        <mxCell id="F8VIh5NcbDrvzz-t5l7X-19" value="1" style="edgeLabel;resizable=0;html=1;align=right;verticalAlign=top;" parent="F8VIh5NcbDrvzz-t5l7X-18" connectable="0" vertex="1">
          <mxGeometry x="1" relative="1" as="geometry">
            <mxPoint x="15" y="-47" as="offset" />
          </mxGeometry>
        </mxCell>
        <mxCell id="F8VIh5NcbDrvzz-t5l7X-22" value="&lt;i&gt;Component_Collider&lt;/i&gt;" style="html=1;whiteSpace=wrap;" parent="WIyWlLk6GJQsqaUBKTNV-1" vertex="1">
          <mxGeometry x="1375.6100000000001" y="-268" width="138.78" height="33.38" as="geometry" />
        </mxCell>
        <mxCell id="F8VIh5NcbDrvzz-t5l7X-23" value="" style="endArrow=blockThin;html=1;endSize=12;startArrow=none;startSize=14;startFill=0;rounded=0;endFill=1;entryX=0.5;entryY=0;entryDx=0;entryDy=0;" parent="WIyWlLk6GJQsqaUBKTNV-1" source="F8VIh5NcbDrvzz-t5l7X-11" target="F8VIh5NcbDrvzz-t5l7X-22" edge="1">
          <mxGeometry x="0.125" y="-10" relative="1" as="geometry">
            <mxPoint x="1431" y="-348.88" as="sourcePoint" />
            <mxPoint x="1430" y="-249.88" as="targetPoint" />
            <mxPoint as="offset" />
          </mxGeometry>
        </mxCell>
        <mxCell id="F8VIh5NcbDrvzz-t5l7X-24" value="*" style="edgeLabel;resizable=0;html=1;align=right;verticalAlign=top;" parent="F8VIh5NcbDrvzz-t5l7X-23" connectable="0" vertex="1">
          <mxGeometry x="1" relative="1" as="geometry">
            <mxPoint x="15" y="-47" as="offset" />
          </mxGeometry>
        </mxCell>
        <mxCell id="F8VIh5NcbDrvzz-t5l7X-25" value="Component_Animator" style="swimlane;fontStyle=1;align=center;verticalAlign=top;childLayout=stackLayout;horizontal=1;startSize=26;horizontalStack=0;resizeParent=1;resizeParentMax=0;resizeLast=0;collapsible=1;marginBottom=0;whiteSpace=wrap;html=1;" parent="WIyWlLk6GJQsqaUBKTNV-1" vertex="1">
          <mxGeometry x="-110" y="213" width="420" height="294" as="geometry" />
        </mxCell>
        <mxCell id="ZTdCD9b7tQwCkOKK2DTz-1" value="- animations: std::unordered_map&amp;lt;std::string, std::shared_ptr&amp;lt;Animation&amp;gt;&amp;gt;" style="text;strokeColor=none;fillColor=none;align=left;verticalAlign=top;spacingLeft=4;spacingRight=4;overflow=hidden;rotatable=0;points=[[0,0.5],[1,0.5]];portConstraint=eastwest;whiteSpace=wrap;html=1;" parent="F8VIh5NcbDrvzz-t5l7X-25" vertex="1">
          <mxGeometry y="26" width="420" height="26" as="geometry" />
        </mxCell>
        <mxCell id="ZTdCD9b7tQwCkOKK2DTz-11" value="- current_animation:&amp;nbsp;std::shared_ptr&amp;lt;Animation&amp;gt;" style="text;strokeColor=none;fillColor=none;align=left;verticalAlign=top;spacingLeft=4;spacingRight=4;overflow=hidden;rotatable=0;points=[[0,0.5],[1,0.5]];portConstraint=eastwest;whiteSpace=wrap;html=1;" parent="F8VIh5NcbDrvzz-t5l7X-25" vertex="1">
          <mxGeometry y="52" width="420" height="26" as="geometry" />
        </mxCell>
        <mxCell id="F8VIh5NcbDrvzz-t5l7X-27" value="" style="line;strokeWidth=1;fillColor=none;align=left;verticalAlign=middle;spacingTop=-1;spacingLeft=3;spacingRight=3;rotatable=0;labelPosition=right;points=[];portConstraint=eastwest;strokeColor=inherit;" parent="F8VIh5NcbDrvzz-t5l7X-25" vertex="1">
          <mxGeometry y="78" width="420" height="8" as="geometry" />
        </mxCell>
        <mxCell id="F8VIh5NcbDrvzz-t5l7X-28" value="+ RegisterAnimation(std::shared_ptr&amp;lt;Animation&amp;gt;): void" style="text;strokeColor=none;fillColor=none;align=left;verticalAlign=top;spacingLeft=4;spacingRight=4;overflow=hidden;rotatable=0;points=[[0,0.5],[1,0.5]];portConstraint=eastwest;whiteSpace=wrap;html=1;" parent="F8VIh5NcbDrvzz-t5l7X-25" vertex="1">
          <mxGeometry y="86" width="420" height="26" as="geometry" />
        </mxCell>
        <mxCell id="ZTdCD9b7tQwCkOKK2DTz-12" value="+ PlayAnimation(std::string): void" style="text;strokeColor=none;fillColor=none;align=left;verticalAlign=top;spacingLeft=4;spacingRight=4;overflow=hidden;rotatable=0;points=[[0,0.5],[1,0.5]];portConstraint=eastwest;whiteSpace=wrap;html=1;" parent="F8VIh5NcbDrvzz-t5l7X-25" vertex="1">
          <mxGeometry y="112" width="420" height="26" as="geometry" />
        </mxCell>
        <mxCell id="tJK-X9PhrwTJoJz0S8QL-2" value="+ StopAnimation(): void" style="text;strokeColor=none;fillColor=none;align=left;verticalAlign=top;spacingLeft=4;spacingRight=4;overflow=hidden;rotatable=0;points=[[0,0.5],[1,0.5]];portConstraint=eastwest;whiteSpace=wrap;html=1;" parent="F8VIh5NcbDrvzz-t5l7X-25" vertex="1">
          <mxGeometry y="138" width="420" height="26" as="geometry" />
        </mxCell>
        <mxCell id="ZTdCD9b7tQwCkOKK2DTz-13" value="+ ModifyAnimation(std::string, bool, double): void" style="text;strokeColor=none;fillColor=none;align=left;verticalAlign=top;spacingLeft=4;spacingRight=4;overflow=hidden;rotatable=0;points=[[0,0.5],[1,0.5]];portConstraint=eastwest;whiteSpace=wrap;html=1;" parent="F8VIh5NcbDrvzz-t5l7X-25" vertex="1">
          <mxGeometry y="164" width="420" height="26" as="geometry" />
        </mxCell>
        <mxCell id="tJK-X9PhrwTJoJz0S8QL-3" value="+ ModifyAnimation(std::string, bool): void" style="text;strokeColor=none;fillColor=none;align=left;verticalAlign=top;spacingLeft=4;spacingRight=4;overflow=hidden;rotatable=0;points=[[0,0.5],[1,0.5]];portConstraint=eastwest;whiteSpace=wrap;html=1;" parent="F8VIh5NcbDrvzz-t5l7X-25" vertex="1">
          <mxGeometry y="190" width="420" height="26" as="geometry" />
        </mxCell>
        <mxCell id="tJK-X9PhrwTJoJz0S8QL-4" value="+ ModifyAnimation(std::string, double): void" style="text;strokeColor=none;fillColor=none;align=left;verticalAlign=top;spacingLeft=4;spacingRight=4;overflow=hidden;rotatable=0;points=[[0,0.5],[1,0.5]];portConstraint=eastwest;whiteSpace=wrap;html=1;" parent="F8VIh5NcbDrvzz-t5l7X-25" vertex="1">
          <mxGeometry y="216" width="420" height="26" as="geometry" />
        </mxCell>
        <mxCell id="FnCDFKwJpO0uUA8LM9jn-21" value="+ { override } Startable(): bool" style="text;strokeColor=none;fillColor=none;align=left;verticalAlign=top;spacingLeft=4;spacingRight=4;overflow=hidden;rotatable=0;points=[[0,0.5],[1,0.5]];portConstraint=eastwest;whiteSpace=wrap;html=1;" parent="F8VIh5NcbDrvzz-t5l7X-25" vertex="1">
          <mxGeometry y="242" width="420" height="26" as="geometry" />
        </mxCell>
        <mxCell id="ZTdCD9b7tQwCkOKK2DTz-14" value="+ { override } Update(): void" style="text;strokeColor=none;fillColor=none;align=left;verticalAlign=top;spacingLeft=4;spacingRight=4;overflow=hidden;rotatable=0;points=[[0,0.5],[1,0.5]];portConstraint=eastwest;whiteSpace=wrap;html=1;" parent="F8VIh5NcbDrvzz-t5l7X-25" vertex="1">
          <mxGeometry y="268" width="420" height="26" as="geometry" />
        </mxCell>
        <mxCell id="ZTdCD9b7tQwCkOKK2DTz-0" value="Animation" style="swimlane;fontStyle=1;align=center;verticalAlign=top;childLayout=stackLayout;horizontal=1;startSize=26;horizontalStack=0;resizeParent=1;resizeParentMax=0;resizeLast=0;collapsible=1;marginBottom=0;whiteSpace=wrap;html=1;" parent="WIyWlLk6GJQsqaUBKTNV-1" vertex="1">
          <mxGeometry x="-90" y="1110" width="380" height="320" as="geometry" />
        </mxCell>
        <mxCell id="F8VIh5NcbDrvzz-t5l7X-26" value="- animation_frames: std::shared_ptr&amp;lt;std::vector&amp;lt;PictureIndex&amp;gt;&amp;gt;" style="text;strokeColor=none;fillColor=none;align=left;verticalAlign=top;spacingLeft=4;spacingRight=4;overflow=hidden;rotatable=0;points=[[0,0.5],[1,0.5]];portConstraint=eastwest;whiteSpace=wrap;html=1;" parent="ZTdCD9b7tQwCkOKK2DTz-0" vertex="1">
          <mxGeometry y="26" width="380" height="26" as="geometry" />
        </mxCell>
        <mxCell id="ZTdCD9b7tQwCkOKK2DTz-4" value="- current_frame: int" style="text;strokeColor=none;fillColor=none;align=left;verticalAlign=top;spacingLeft=4;spacingRight=4;overflow=hidden;rotatable=0;points=[[0,0.5],[1,0.5]];portConstraint=eastwest;whiteSpace=wrap;html=1;" parent="ZTdCD9b7tQwCkOKK2DTz-0" vertex="1">
          <mxGeometry y="52" width="380" height="26" as="geometry" />
        </mxCell>
        <mxCell id="ZTdCD9b7tQwCkOKK2DTz-5" value="- frame_time: double" style="text;strokeColor=none;fillColor=none;align=left;verticalAlign=top;spacingLeft=4;spacingRight=4;overflow=hidden;rotatable=0;points=[[0,0.5],[1,0.5]];portConstraint=eastwest;whiteSpace=wrap;html=1;" parent="ZTdCD9b7tQwCkOKK2DTz-0" vertex="1">
          <mxGeometry y="78" width="380" height="26" as="geometry" />
        </mxCell>
        <mxCell id="tJK-X9PhrwTJoJz0S8QL-0" value="- elapsed_time: double" style="text;strokeColor=none;fillColor=none;align=left;verticalAlign=top;spacingLeft=4;spacingRight=4;overflow=hidden;rotatable=0;points=[[0,0.5],[1,0.5]];portConstraint=eastwest;whiteSpace=wrap;html=1;" parent="ZTdCD9b7tQwCkOKK2DTz-0" vertex="1">
          <mxGeometry y="104" width="380" height="26" as="geometry" />
        </mxCell>
        <mxCell id="ZTdCD9b7tQwCkOKK2DTz-6" value="+ name: std::string" style="text;strokeColor=none;fillColor=none;align=left;verticalAlign=top;spacingLeft=4;spacingRight=4;overflow=hidden;rotatable=0;points=[[0,0.5],[1,0.5]];portConstraint=eastwest;whiteSpace=wrap;html=1;" parent="ZTdCD9b7tQwCkOKK2DTz-0" vertex="1">
          <mxGeometry y="130" width="380" height="26" as="geometry" />
        </mxCell>
        <mxCell id="ZTdCD9b7tQwCkOKK2DTz-7" value="+ loop: false" style="text;strokeColor=none;fillColor=none;align=left;verticalAlign=top;spacingLeft=4;spacingRight=4;overflow=hidden;rotatable=0;points=[[0,0.5],[1,0.5]];portConstraint=eastwest;whiteSpace=wrap;html=1;" parent="ZTdCD9b7tQwCkOKK2DTz-0" vertex="1">
          <mxGeometry y="156" width="380" height="26" as="geometry" />
        </mxCell>
        <mxCell id="ZTdCD9b7tQwCkOKK2DTz-8" value="+ speed: double" style="text;strokeColor=none;fillColor=none;align=left;verticalAlign=top;spacingLeft=4;spacingRight=4;overflow=hidden;rotatable=0;points=[[0,0.5],[1,0.5]];portConstraint=eastwest;whiteSpace=wrap;html=1;" parent="ZTdCD9b7tQwCkOKK2DTz-0" vertex="1">
          <mxGeometry y="182" width="380" height="26" as="geometry" />
        </mxCell>
        <mxCell id="ZTdCD9b7tQwCkOKK2DTz-2" value="" style="line;strokeWidth=1;fillColor=none;align=left;verticalAlign=middle;spacingTop=-1;spacingLeft=3;spacingRight=3;rotatable=0;labelPosition=right;points=[];portConstraint=eastwest;strokeColor=inherit;" parent="ZTdCD9b7tQwCkOKK2DTz-0" vertex="1">
          <mxGeometry y="208" width="380" height="8" as="geometry" />
        </mxCell>
        <mxCell id="ZTdCD9b7tQwCkOKK2DTz-3" value="+ Animation(std::string, std::vector&amp;lt;Sprite&amp;gt;, bool, double): constructor" style="text;strokeColor=none;fillColor=none;align=left;verticalAlign=top;spacingLeft=4;spacingRight=4;overflow=hidden;rotatable=0;points=[[0,0.5],[1,0.5]];portConstraint=eastwest;whiteSpace=wrap;html=1;" parent="ZTdCD9b7tQwCkOKK2DTz-0" vertex="1">
          <mxGeometry y="216" width="380" height="26" as="geometry" />
        </mxCell>
        <mxCell id="ZTdCD9b7tQwCkOKK2DTz-9" value="+ Play(Vector2D position, float rotation, float scale): bool" style="text;strokeColor=none;fillColor=none;align=left;verticalAlign=top;spacingLeft=4;spacingRight=4;overflow=hidden;rotatable=0;points=[[0,0.5],[1,0.5]];portConstraint=eastwest;whiteSpace=wrap;html=1;" parent="ZTdCD9b7tQwCkOKK2DTz-0" vertex="1">
          <mxGeometry y="242" width="380" height="26" as="geometry" />
        </mxCell>
        <mxCell id="ZTdCD9b7tQwCkOKK2DTz-10" value="+ Reset(): void" style="text;strokeColor=none;fillColor=none;align=left;verticalAlign=top;spacingLeft=4;spacingRight=4;overflow=hidden;rotatable=0;points=[[0,0.5],[1,0.5]];portConstraint=eastwest;whiteSpace=wrap;html=1;" parent="ZTdCD9b7tQwCkOKK2DTz-0" vertex="1">
          <mxGeometry y="268" width="380" height="26" as="geometry" />
        </mxCell>
        <mxCell id="tJK-X9PhrwTJoJz0S8QL-1" value="+ GetElapsedTime(): double" style="text;strokeColor=none;fillColor=none;align=left;verticalAlign=top;spacingLeft=4;spacingRight=4;overflow=hidden;rotatable=0;points=[[0,0.5],[1,0.5]];portConstraint=eastwest;whiteSpace=wrap;html=1;" parent="ZTdCD9b7tQwCkOKK2DTz-0" vertex="1">
          <mxGeometry y="294" width="380" height="26" as="geometry" />
        </mxCell>
        <mxCell id="ZTdCD9b7tQwCkOKK2DTz-15" value="" style="endArrow=blockThin;html=1;endSize=12;startArrow=none;startSize=14;startFill=0;rounded=0;endFill=1;exitX=1;exitY=0.5;exitDx=0;exitDy=0;entryX=0;entryY=0.5;entryDx=0;entryDy=0;" parent="WIyWlLk6GJQsqaUBKTNV-1" source="ZTdCD9b7tQwCkOKK2DTz-1" target="6qDn0OYKWrzkokKBHu0U-1" edge="1">
          <mxGeometry x="0.125" y="-10" relative="1" as="geometry">
            <mxPoint x="377.5" y="450" as="sourcePoint" />
            <mxPoint x="512.5" y="450" as="targetPoint" />
            <mxPoint as="offset" />
          </mxGeometry>
        </mxCell>
        <mxCell id="ZTdCD9b7tQwCkOKK2DTz-16" value="1" style="edgeLabel;resizable=0;html=1;align=right;verticalAlign=top;" parent="ZTdCD9b7tQwCkOKK2DTz-15" connectable="0" vertex="1">
          <mxGeometry x="1" relative="1" as="geometry">
            <mxPoint x="-40" as="offset" />
          </mxGeometry>
        </mxCell>
        <mxCell id="ZTdCD9b7tQwCkOKK2DTz-17" value="" style="endArrow=none;html=1;rounded=0;exitX=0.5;exitY=0;exitDx=0;exitDy=0;entryX=0;entryY=0.5;entryDx=0;entryDy=0;" parent="WIyWlLk6GJQsqaUBKTNV-1" source="F8VIh5NcbDrvzz-t5l7X-25" target="ChDK3uv7QOIiksjjmPV_-73" edge="1">
          <mxGeometry width="50" height="50" relative="1" as="geometry">
            <mxPoint x="547.5" y="223" as="sourcePoint" />
            <mxPoint x="1497.5" y="123" as="targetPoint" />
            <Array as="points">
              <mxPoint x="100.5" y="113" />
            </Array>
          </mxGeometry>
        </mxCell>
        <mxCell id="ZTdCD9b7tQwCkOKK2DTz-18" value="" style="endArrow=blockThin;html=1;endSize=12;startArrow=none;startSize=14;startFill=0;rounded=0;endFill=1;entryX=0.5;entryY=0;entryDx=0;entryDy=0;" parent="WIyWlLk6GJQsqaUBKTNV-1" source="F8VIh5NcbDrvzz-t5l7X-25" target="ZTdCD9b7tQwCkOKK2DTz-0" edge="1">
          <mxGeometry x="0.125" y="-10" relative="1" as="geometry">
            <mxPoint x="434.97" y="650" as="sourcePoint" />
            <mxPoint x="572.97" y="650" as="targetPoint" />
            <mxPoint as="offset" />
          </mxGeometry>
        </mxCell>
        <mxCell id="ZTdCD9b7tQwCkOKK2DTz-19" value="1" style="edgeLabel;resizable=0;html=1;align=right;verticalAlign=top;" parent="ZTdCD9b7tQwCkOKK2DTz-18" connectable="0" vertex="1">
          <mxGeometry x="1" relative="1" as="geometry">
            <mxPoint x="20" y="-50" as="offset" />
          </mxGeometry>
        </mxCell>
        <mxCell id="tJK-X9PhrwTJoJz0S8QL-5" value="EngineException" style="swimlane;fontStyle=1;align=center;verticalAlign=top;childLayout=stackLayout;horizontal=1;startSize=26;horizontalStack=0;resizeParent=1;resizeParentMax=0;resizeLast=0;collapsible=1;marginBottom=0;whiteSpace=wrap;html=1;" parent="WIyWlLk6GJQsqaUBKTNV-1" vertex="1">
          <mxGeometry x="407.5" y="-1482" width="240" height="112" as="geometry" />
        </mxCell>
        <mxCell id="tJK-X9PhrwTJoJz0S8QL-6" value="- message: std::string" style="text;strokeColor=none;fillColor=none;align=left;verticalAlign=top;spacingLeft=4;spacingRight=4;overflow=hidden;rotatable=0;points=[[0,0.5],[1,0.5]];portConstraint=eastwest;whiteSpace=wrap;html=1;" parent="tJK-X9PhrwTJoJz0S8QL-5" vertex="1">
          <mxGeometry y="26" width="240" height="26" as="geometry" />
        </mxCell>
        <mxCell id="tJK-X9PhrwTJoJz0S8QL-7" value="" style="line;strokeWidth=1;fillColor=none;align=left;verticalAlign=middle;spacingTop=-1;spacingLeft=3;spacingRight=3;rotatable=0;labelPosition=right;points=[];portConstraint=eastwest;strokeColor=inherit;" parent="tJK-X9PhrwTJoJz0S8QL-5" vertex="1">
          <mxGeometry y="52" width="240" height="8" as="geometry" />
        </mxCell>
        <mxCell id="tJK-X9PhrwTJoJz0S8QL-8" value="+ EngineException(std::string): constructor" style="text;strokeColor=none;fillColor=none;align=left;verticalAlign=top;spacingLeft=4;spacingRight=4;overflow=hidden;rotatable=0;points=[[0,0.5],[1,0.5]];portConstraint=eastwest;whiteSpace=wrap;html=1;" parent="tJK-X9PhrwTJoJz0S8QL-5" vertex="1">
          <mxGeometry y="60" width="240" height="26" as="geometry" />
        </mxCell>
        <mxCell id="tJK-X9PhrwTJoJz0S8QL-11" value="+ what() const throw(): const char*" style="text;strokeColor=none;fillColor=none;align=left;verticalAlign=top;spacingLeft=4;spacingRight=4;overflow=hidden;rotatable=0;points=[[0,0.5],[1,0.5]];portConstraint=eastwest;whiteSpace=wrap;html=1;" parent="tJK-X9PhrwTJoJz0S8QL-5" vertex="1">
          <mxGeometry y="86" width="240" height="26" as="geometry" />
        </mxCell>
        <mxCell id="tJK-X9PhrwTJoJz0S8QL-9" value="Extends" style="endArrow=block;endSize=16;endFill=0;html=1;rounded=0;exitX=0.5;exitY=0;exitDx=0;exitDy=0;entryX=0.5;entryY=1;entryDx=0;entryDy=0;" parent="WIyWlLk6GJQsqaUBKTNV-1" source="tJK-X9PhrwTJoJz0S8QL-5" target="tJK-X9PhrwTJoJz0S8QL-10" edge="1">
          <mxGeometry width="160" relative="1" as="geometry">
            <mxPoint x="477.5" y="-1391" as="sourcePoint" />
            <mxPoint x="477.5" y="-1499" as="targetPoint" />
          </mxGeometry>
        </mxCell>
        <mxCell id="tJK-X9PhrwTJoJz0S8QL-10" value="std::exception" style="html=1;whiteSpace=wrap;" parent="WIyWlLk6GJQsqaUBKTNV-1" vertex="1">
          <mxGeometry x="478.12" y="-1610" width="98.75" height="38" as="geometry" />
        </mxCell>
        <mxCell id="tJK-X9PhrwTJoJz0S8QL-12" value="Where Required" style="html=1;whiteSpace=wrap;" parent="WIyWlLk6GJQsqaUBKTNV-1" vertex="1">
          <mxGeometry x="472.5" y="-1292" width="110" height="42" as="geometry" />
        </mxCell>
        <mxCell id="tJK-X9PhrwTJoJz0S8QL-13" value="" style="endArrow=blockThin;html=1;endSize=12;startArrow=none;startSize=14;startFill=0;rounded=0;endFill=1;exitX=0.5;exitY=0;exitDx=0;exitDy=0;" parent="WIyWlLk6GJQsqaUBKTNV-1" source="tJK-X9PhrwTJoJz0S8QL-12" target="tJK-X9PhrwTJoJz0S8QL-5" edge="1">
          <mxGeometry x="0.125" y="-10" relative="1" as="geometry">
            <mxPoint x="237.5" y="-1460" as="sourcePoint" />
            <mxPoint x="237.5" y="-1532" as="targetPoint" />
            <mxPoint as="offset" />
          </mxGeometry>
        </mxCell>
        <mxCell id="tJK-X9PhrwTJoJz0S8QL-14" value="*" style="edgeLabel;resizable=0;html=1;align=left;verticalAlign=top;" parent="tJK-X9PhrwTJoJz0S8QL-13" connectable="0" vertex="1">
          <mxGeometry x="-1" relative="1" as="geometry">
            <mxPoint x="10" y="-60" as="offset" />
          </mxGeometry>
        </mxCell>
        <mxCell id="tJK-X9PhrwTJoJz0S8QL-15" value="Where Required" style="html=1;whiteSpace=wrap;" parent="WIyWlLk6GJQsqaUBKTNV-1" vertex="1">
          <mxGeometry x="157.5" y="-1292" width="110" height="42" as="geometry" />
        </mxCell>
        <mxCell id="tJK-X9PhrwTJoJz0S8QL-16" value="" style="endArrow=blockThin;html=1;endSize=12;startArrow=none;startSize=14;startFill=0;rounded=0;endFill=1;entryX=0.5;entryY=0;entryDx=0;entryDy=0;" parent="WIyWlLk6GJQsqaUBKTNV-1" source="tBnS8gJTHhUAaLSSompM-77" target="tJK-X9PhrwTJoJz0S8QL-15" edge="1">
          <mxGeometry x="0.125" y="-10" relative="1" as="geometry">
            <mxPoint x="290" y="-1509" as="sourcePoint" />
            <mxPoint x="290" y="-1649" as="targetPoint" />
            <mxPoint as="offset" />
          </mxGeometry>
        </mxCell>
        <mxCell id="tJK-X9PhrwTJoJz0S8QL-17" value="*" style="edgeLabel;resizable=0;html=1;align=left;verticalAlign=top;" parent="tJK-X9PhrwTJoJz0S8QL-16" connectable="0" vertex="1">
          <mxGeometry x="-1" relative="1" as="geometry">
            <mxPoint x="10" y="88" as="offset" />
          </mxGeometry>
        </mxCell>
        <mxCell id="tJK-X9PhrwTJoJz0S8QL-18" value="Component_InputReader" style="swimlane;fontStyle=1;align=center;verticalAlign=top;childLayout=stackLayout;horizontal=1;startSize=26;horizontalStack=0;resizeParent=1;resizeParentMax=0;resizeLast=0;collapsible=1;marginBottom=0;whiteSpace=wrap;html=1;" parent="WIyWlLk6GJQsqaUBKTNV-1" vertex="1">
          <mxGeometry x="2176.18" y="213" width="223.82" height="104" as="geometry" />
        </mxCell>
        <mxCell id="tJK-X9PhrwTJoJz0S8QL-21" value="+ { virtual override } Startable(): bool" style="text;strokeColor=none;fillColor=none;align=left;verticalAlign=top;spacingLeft=4;spacingRight=4;overflow=hidden;rotatable=0;points=[[0,0.5],[1,0.5]];portConstraint=eastwest;whiteSpace=wrap;html=1;" parent="tJK-X9PhrwTJoJz0S8QL-18" vertex="1">
          <mxGeometry y="26" width="223.82" height="26" as="geometry" />
        </mxCell>
        <mxCell id="FnCDFKwJpO0uUA8LM9jn-26" value="+ { virtual override } Updatable(): bool" style="text;strokeColor=none;fillColor=none;align=left;verticalAlign=top;spacingLeft=4;spacingRight=4;overflow=hidden;rotatable=0;points=[[0,0.5],[1,0.5]];portConstraint=eastwest;whiteSpace=wrap;html=1;" parent="tJK-X9PhrwTJoJz0S8QL-18" vertex="1">
          <mxGeometry y="52" width="223.82" height="26" as="geometry" />
        </mxCell>
        <mxCell id="tJK-X9PhrwTJoJz0S8QL-22" value="+ KeyPressed(KEYBOARD_KEY): bool" style="text;strokeColor=none;fillColor=none;align=left;verticalAlign=top;spacingLeft=4;spacingRight=4;overflow=hidden;rotatable=0;points=[[0,0.5],[1,0.5]];portConstraint=eastwest;whiteSpace=wrap;html=1;" parent="tJK-X9PhrwTJoJz0S8QL-18" vertex="1">
          <mxGeometry y="78" width="223.82" height="26" as="geometry" />
        </mxCell>
        <mxCell id="tJK-X9PhrwTJoJz0S8QL-23" value="" style="endArrow=none;html=1;rounded=0;exitX=0.5;exitY=0;exitDx=0;exitDy=0;entryX=1;entryY=0.5;entryDx=0;entryDy=0;" parent="WIyWlLk6GJQsqaUBKTNV-1" source="tJK-X9PhrwTJoJz0S8QL-18" target="ChDK3uv7QOIiksjjmPV_-73" edge="1">
          <mxGeometry width="50" height="50" relative="1" as="geometry">
            <mxPoint x="1897" y="223" as="sourcePoint" />
            <mxPoint x="1562" y="123" as="targetPoint" />
            <Array as="points">
              <mxPoint x="2288" y="113" />
            </Array>
          </mxGeometry>
        </mxCell>
        <mxCell id="tJK-X9PhrwTJoJz0S8QL-24" value="" style="endArrow=blockThin;html=1;endSize=12;startArrow=none;startSize=14;startFill=0;rounded=0;endFill=1;exitX=0.5;exitY=0;exitDx=0;exitDy=0;" parent="WIyWlLk6GJQsqaUBKTNV-1" source="tJK-X9PhrwTJoJz0S8QL-26" target="Dls-eGzetItIZ1qPlxtJ-2" edge="1">
          <mxGeometry x="0.125" y="-10" relative="1" as="geometry">
            <mxPoint x="-80" y="-356" as="sourcePoint" />
            <mxPoint x="-80" y="-494" as="targetPoint" />
            <mxPoint as="offset" />
          </mxGeometry>
        </mxCell>
        <mxCell id="tJK-X9PhrwTJoJz0S8QL-25" value="1" style="edgeLabel;resizable=0;html=1;align=left;verticalAlign=top;" parent="tJK-X9PhrwTJoJz0S8QL-24" connectable="0" vertex="1">
          <mxGeometry x="-1" relative="1" as="geometry">
            <mxPoint x="8" y="-67" as="offset" />
          </mxGeometry>
        </mxCell>
        <mxCell id="tJK-X9PhrwTJoJz0S8QL-26" value="Component_InputReader" style="html=1;whiteSpace=wrap;" parent="WIyWlLk6GJQsqaUBKTNV-1" vertex="1">
          <mxGeometry x="-118.5" y="-420" width="162" height="40" as="geometry" />
        </mxCell>
        <mxCell id="tJK-X9PhrwTJoJz0S8QL-27" value="" style="endArrow=blockThin;html=1;endSize=12;startArrow=none;startSize=14;startFill=0;rounded=0;endFill=1;entryX=0;entryY=0.5;entryDx=0;entryDy=0;exitX=1;exitY=0.5;exitDx=0;exitDy=0;" parent="WIyWlLk6GJQsqaUBKTNV-1" source="tJK-X9PhrwTJoJz0S8QL-21" target="tJK-X9PhrwTJoJz0S8QL-29" edge="1">
          <mxGeometry x="0.125" y="-10" relative="1" as="geometry">
            <mxPoint x="2270" y="428" as="sourcePoint" />
            <mxPoint x="2270" y="340" as="targetPoint" />
            <mxPoint as="offset" />
          </mxGeometry>
        </mxCell>
        <mxCell id="tJK-X9PhrwTJoJz0S8QL-28" value="1" style="edgeLabel;resizable=0;html=1;align=left;verticalAlign=top;" parent="tJK-X9PhrwTJoJz0S8QL-27" connectable="0" vertex="1">
          <mxGeometry x="-1" relative="1" as="geometry">
            <mxPoint x="120" as="offset" />
          </mxGeometry>
        </mxCell>
        <mxCell id="tJK-X9PhrwTJoJz0S8QL-29" value="InputManager" style="html=1;whiteSpace=wrap;" parent="WIyWlLk6GJQsqaUBKTNV-1" vertex="1">
          <mxGeometry x="2560" y="227" width="110" height="50" as="geometry" />
        </mxCell>
        <mxCell id="FnCDFKwJpO0uUA8LM9jn-0" value="GameObjectFactory" style="swimlane;fontStyle=1;align=center;verticalAlign=top;childLayout=stackLayout;horizontal=1;startSize=26;horizontalStack=0;resizeParent=1;resizeParentMax=0;resizeLast=0;collapsible=1;marginBottom=0;whiteSpace=wrap;html=1;" parent="WIyWlLk6GJQsqaUBKTNV-1" vertex="1">
          <mxGeometry x="1160.0000000000002" y="-2290" width="850" height="164" as="geometry" />
        </mxCell>
        <mxCell id="FnCDFKwJpO0uUA8LM9jn-1" value="- object_creation_jump_table: std::unordered_map&amp;lt;GameObjectType, std::function&amp;lt;std::shared_ptr&amp;lt;GameObject&amp;gt;(std::shared_ptr&amp;lt;ComponentRegistry&amp;gt;)&amp;gt;&amp;gt;&amp;gt;" style="text;strokeColor=none;fillColor=none;align=left;verticalAlign=top;spacingLeft=4;spacingRight=4;overflow=hidden;rotatable=0;points=[[0,0.5],[1,0.5]];portConstraint=eastwest;whiteSpace=wrap;html=1;" parent="FnCDFKwJpO0uUA8LM9jn-0" vertex="1">
          <mxGeometry y="26" width="850" height="26" as="geometry" />
        </mxCell>
        <mxCell id="FnCDFKwJpO0uUA8LM9jn-2" value="" style="line;strokeWidth=1;fillColor=none;align=left;verticalAlign=middle;spacingTop=-1;spacingLeft=3;spacingRight=3;rotatable=0;labelPosition=right;points=[];portConstraint=eastwest;strokeColor=inherit;" parent="FnCDFKwJpO0uUA8LM9jn-0" vertex="1">
          <mxGeometry y="52" width="850" height="8" as="geometry" />
        </mxCell>
        <mxCell id="FnCDFKwJpO0uUA8LM9jn-3" value="- GameObjectFactory(): constructor" style="text;strokeColor=none;fillColor=none;align=left;verticalAlign=top;spacingLeft=4;spacingRight=4;overflow=hidden;rotatable=0;points=[[0,0.5],[1,0.5]];portConstraint=eastwest;whiteSpace=wrap;html=1;" parent="FnCDFKwJpO0uUA8LM9jn-0" vertex="1">
          <mxGeometry y="60" width="850" height="26" as="geometry" />
        </mxCell>
        <mxCell id="FnCDFKwJpO0uUA8LM9jn-4" value="+ { static } GetInstance(): GameObjectFactory&amp;amp;" style="text;strokeColor=none;fillColor=none;align=left;verticalAlign=top;spacingLeft=4;spacingRight=4;overflow=hidden;rotatable=0;points=[[0,0.5],[1,0.5]];portConstraint=eastwest;whiteSpace=wrap;html=1;" parent="FnCDFKwJpO0uUA8LM9jn-0" vertex="1">
          <mxGeometry y="86" width="850" height="26" as="geometry" />
        </mxCell>
        <mxCell id="FnCDFKwJpO0uUA8LM9jn-5" value="+ CreateGameObject(GameObjectType, std::shared_ptr&amp;lt;ComponetRegistry&amp;gt;): std::shared_ptr&amp;lt;GameObject&amp;gt;" style="text;strokeColor=none;fillColor=none;align=left;verticalAlign=top;spacingLeft=4;spacingRight=4;overflow=hidden;rotatable=0;points=[[0,0.5],[1,0.5]];portConstraint=eastwest;whiteSpace=wrap;html=1;" parent="FnCDFKwJpO0uUA8LM9jn-0" vertex="1">
          <mxGeometry y="112" width="850" height="26" as="geometry" />
        </mxCell>
        <mxCell id="FnCDFKwJpO0uUA8LM9jn-6" value="..." style="text;strokeColor=none;fillColor=none;align=left;verticalAlign=top;spacingLeft=4;spacingRight=4;overflow=hidden;rotatable=0;points=[[0,0.5],[1,0.5]];portConstraint=eastwest;whiteSpace=wrap;html=1;" parent="FnCDFKwJpO0uUA8LM9jn-0" vertex="1">
          <mxGeometry y="138" width="850" height="26" as="geometry" />
        </mxCell>
        <mxCell id="FnCDFKwJpO0uUA8LM9jn-7" value="&amp;lt;&amp;lt;enum class&amp;gt;&amp;gt;&lt;br&gt;GameObjectType" style="swimlane;fontStyle=0;childLayout=stackLayout;horizontal=1;startSize=40;fillColor=none;horizontalStack=0;resizeParent=1;resizeParentMax=0;resizeLast=0;collapsible=1;marginBottom=0;whiteSpace=wrap;html=1;" parent="WIyWlLk6GJQsqaUBKTNV-1" vertex="1">
          <mxGeometry x="1515" y="-2418" width="140" height="66" as="geometry" />
        </mxCell>
        <mxCell id="FnCDFKwJpO0uUA8LM9jn-8" value="+ Test" style="text;strokeColor=none;fillColor=none;align=left;verticalAlign=top;spacingLeft=4;spacingRight=4;overflow=hidden;rotatable=0;points=[[0,0.5],[1,0.5]];portConstraint=eastwest;whiteSpace=wrap;html=1;" parent="FnCDFKwJpO0uUA8LM9jn-7" vertex="1">
          <mxGeometry y="40" width="140" height="26" as="geometry" />
        </mxCell>
        <mxCell id="FnCDFKwJpO0uUA8LM9jn-9" value="" style="endArrow=blockThin;html=1;endSize=12;startArrow=none;startSize=14;startFill=0;rounded=0;endFill=1;exitX=0.5;exitY=0;exitDx=0;exitDy=0;" parent="WIyWlLk6GJQsqaUBKTNV-1" source="FnCDFKwJpO0uUA8LM9jn-0" target="FnCDFKwJpO0uUA8LM9jn-7" edge="1">
          <mxGeometry x="0.125" y="-10" relative="1" as="geometry">
            <mxPoint x="1566.4099999999999" y="-1968" as="sourcePoint" />
            <mxPoint x="762.9100000000001" y="-1956" as="targetPoint" />
            <mxPoint as="offset" />
          </mxGeometry>
        </mxCell>
        <mxCell id="FnCDFKwJpO0uUA8LM9jn-10" value="1" style="edgeLabel;resizable=0;html=1;align=right;verticalAlign=top;" parent="FnCDFKwJpO0uUA8LM9jn-9" connectable="0" vertex="1">
          <mxGeometry x="1" relative="1" as="geometry">
            <mxPoint x="15" y="23" as="offset" />
          </mxGeometry>
        </mxCell>
        <mxCell id="FnCDFKwJpO0uUA8LM9jn-11" value="" style="endArrow=blockThin;html=1;endSize=12;startArrow=none;startSize=14;startFill=0;rounded=0;endFill=1;entryX=0;entryY=0.5;entryDx=0;entryDy=0;exitX=1;exitY=0.5;exitDx=0;exitDy=0;" parent="WIyWlLk6GJQsqaUBKTNV-1" source="FnCDFKwJpO0uUA8LM9jn-6" target="FnCDFKwJpO0uUA8LM9jn-15" edge="1">
          <mxGeometry x="0.125" y="-10" relative="1" as="geometry">
            <mxPoint x="1834.9099999999999" y="-1968" as="sourcePoint" />
            <mxPoint x="1617.5" y="-1948" as="targetPoint" />
            <mxPoint as="offset" />
          </mxGeometry>
        </mxCell>
        <mxCell id="FnCDFKwJpO0uUA8LM9jn-12" value="*" style="edgeLabel;resizable=0;html=1;align=right;verticalAlign=top;" parent="FnCDFKwJpO0uUA8LM9jn-11" connectable="0" vertex="1">
          <mxGeometry x="1" relative="1" as="geometry">
            <mxPoint x="-41" y="1" as="offset" />
          </mxGeometry>
        </mxCell>
        <mxCell id="FnCDFKwJpO0uUA8LM9jn-13" value="" style="endArrow=blockThin;html=1;endSize=12;startArrow=none;startSize=14;startFill=0;rounded=0;endFill=1;exitX=1;exitY=0.5;exitDx=0;exitDy=0;entryX=0;entryY=0.5;entryDx=0;entryDy=0;" parent="WIyWlLk6GJQsqaUBKTNV-1" source="FnCDFKwJpO0uUA8LM9jn-16" target="FnCDFKwJpO0uUA8LM9jn-1" edge="1">
          <mxGeometry x="0.125" y="-10" relative="1" as="geometry">
            <mxPoint x="752.5" y="-2224.56" as="sourcePoint" />
            <mxPoint x="1716.4099999999999" y="-1947.56" as="targetPoint" />
            <mxPoint as="offset" />
            <Array as="points" />
          </mxGeometry>
        </mxCell>
        <mxCell id="FnCDFKwJpO0uUA8LM9jn-14" value="1" style="edgeLabel;resizable=0;html=1;align=right;verticalAlign=top;" parent="FnCDFKwJpO0uUA8LM9jn-13" connectable="0" vertex="1">
          <mxGeometry x="1" relative="1" as="geometry">
            <mxPoint x="-30" as="offset" />
          </mxGeometry>
        </mxCell>
        <mxCell id="FnCDFKwJpO0uUA8LM9jn-15" value="All Components" style="html=1;whiteSpace=wrap;" parent="WIyWlLk6GJQsqaUBKTNV-1" vertex="1">
          <mxGeometry x="2140.0000000000005" y="-2154" width="122.64" height="30" as="geometry" />
        </mxCell>
        <mxCell id="FnCDFKwJpO0uUA8LM9jn-16" value="All Scenes" style="html=1;whiteSpace=wrap;" parent="WIyWlLk6GJQsqaUBKTNV-1" vertex="1">
          <mxGeometry x="930" y="-2269" width="110" height="36" as="geometry" />
        </mxCell>
        <mxCell id="FnCDFKwJpO0uUA8LM9jn-17" value="GameObject" style="rounded=0;whiteSpace=wrap;html=1;" parent="WIyWlLk6GJQsqaUBKTNV-1" vertex="1">
          <mxGeometry x="2140" y="-2266" width="110" height="30" as="geometry" />
        </mxCell>
        <mxCell id="FnCDFKwJpO0uUA8LM9jn-18" value="" style="endArrow=blockThin;html=1;endSize=12;startArrow=none;startSize=14;startFill=0;rounded=0;endFill=1;exitX=1;exitY=0.5;exitDx=0;exitDy=0;entryX=0;entryY=0.5;entryDx=0;entryDy=0;" parent="WIyWlLk6GJQsqaUBKTNV-1" source="FnCDFKwJpO0uUA8LM9jn-1" target="FnCDFKwJpO0uUA8LM9jn-17" edge="1">
          <mxGeometry x="0.125" y="-10" relative="1" as="geometry">
            <mxPoint x="1933" y="-2342" as="sourcePoint" />
            <mxPoint x="1785" y="-2342" as="targetPoint" />
            <mxPoint as="offset" />
            <Array as="points" />
          </mxGeometry>
        </mxCell>
        <mxCell id="FnCDFKwJpO0uUA8LM9jn-19" value="1" style="edgeLabel;resizable=0;html=1;align=right;verticalAlign=top;" parent="FnCDFKwJpO0uUA8LM9jn-18" connectable="0" vertex="1">
          <mxGeometry x="1" relative="1" as="geometry">
            <mxPoint x="-41" as="offset" />
          </mxGeometry>
        </mxCell>
        <mxCell id="FnCDFKwJpO0uUA8LM9jn-27" value="MainCamera" style="swimlane;fontStyle=1;align=center;verticalAlign=top;childLayout=stackLayout;horizontal=1;startSize=26;horizontalStack=0;resizeParent=1;resizeParentMax=0;resizeLast=0;collapsible=1;marginBottom=0;whiteSpace=wrap;html=1;" parent="WIyWlLk6GJQsqaUBKTNV-1" vertex="1">
          <mxGeometry x="267.5" y="-530" width="160" height="78" as="geometry" />
        </mxCell>
        <mxCell id="FnCDFKwJpO0uUA8LM9jn-30" value="+ MoveTo(Vector2D): void" style="text;strokeColor=none;fillColor=none;align=left;verticalAlign=top;spacingLeft=4;spacingRight=4;overflow=hidden;rotatable=0;points=[[0,0.5],[1,0.5]];portConstraint=eastwest;whiteSpace=wrap;html=1;" parent="FnCDFKwJpO0uUA8LM9jn-27" vertex="1">
          <mxGeometry y="26" width="160" height="26" as="geometry" />
        </mxCell>
        <mxCell id="FnCDFKwJpO0uUA8LM9jn-32" value="+ Zoom(float): void" style="text;strokeColor=none;fillColor=none;align=left;verticalAlign=top;spacingLeft=4;spacingRight=4;overflow=hidden;rotatable=0;points=[[0,0.5],[1,0.5]];portConstraint=eastwest;whiteSpace=wrap;html=1;" parent="FnCDFKwJpO0uUA8LM9jn-27" vertex="1">
          <mxGeometry y="52" width="160" height="26" as="geometry" />
        </mxCell>
        <mxCell id="FnCDFKwJpO0uUA8LM9jn-33" value="" style="endArrow=none;html=1;endSize=12;startArrow=blockThin;startSize=14;startFill=1;rounded=0;endFill=0;entryX=0;entryY=0.5;entryDx=0;entryDy=0;exitX=0.5;exitY=0;exitDx=0;exitDy=0;" parent="WIyWlLk6GJQsqaUBKTNV-1" source="FnCDFKwJpO0uUA8LM9jn-27" target="M1MSdD-5XBLC1a_fBFbh-43" edge="1">
          <mxGeometry x="0.125" y="-10" relative="1" as="geometry">
            <mxPoint x="480" y="-612" as="sourcePoint" />
            <mxPoint x="360" y="-612" as="targetPoint" />
            <mxPoint as="offset" />
            <Array as="points">
              <mxPoint x="348" y="-625" />
            </Array>
          </mxGeometry>
        </mxCell>
        <mxCell id="FnCDFKwJpO0uUA8LM9jn-34" value="1" style="edgeLabel;resizable=0;html=1;align=left;verticalAlign=top;" parent="FnCDFKwJpO0uUA8LM9jn-33" connectable="0" vertex="1">
          <mxGeometry x="-1" relative="1" as="geometry">
            <mxPoint x="13" y="-54" as="offset" />
          </mxGeometry>
        </mxCell>
        <mxCell id="ob4mdXJooFX8vDK0r2w0-0" value="Components" style="shape=umlFrame;whiteSpace=wrap;html=1;pointerEvents=0;width=98;height=30;" vertex="1" parent="WIyWlLk6GJQsqaUBKTNV-1">
          <mxGeometry x="2422.5" y="-2560" width="1447.5" height="630" as="geometry" />
        </mxCell>
        <mxCell id="ob4mdXJooFX8vDK0r2w0-1" value="Component_PlayerInput" style="html=1;whiteSpace=wrap;" vertex="1" parent="WIyWlLk6GJQsqaUBKTNV-1">
          <mxGeometry x="2207.91" y="430" width="160.36" height="40" as="geometry" />
        </mxCell>
        <mxCell id="ob4mdXJooFX8vDK0r2w0-2" value="Extends" style="endArrow=block;endSize=16;endFill=0;html=1;rounded=0;exitX=0.5;exitY=0;exitDx=0;exitDy=0;" edge="1" parent="WIyWlLk6GJQsqaUBKTNV-1" source="ob4mdXJooFX8vDK0r2w0-1" target="tJK-X9PhrwTJoJz0S8QL-18">
          <mxGeometry width="160" relative="1" as="geometry">
            <mxPoint x="2160" y="453" as="sourcePoint" />
            <mxPoint x="2160" y="371" as="targetPoint" />
          </mxGeometry>
        </mxCell>
        <mxCell id="ob4mdXJooFX8vDK0r2w0-3" value="Component_PlayerInput" style="swimlane;fontStyle=1;align=center;verticalAlign=top;childLayout=stackLayout;horizontal=1;startSize=26;horizontalStack=0;resizeParent=1;resizeParentMax=0;resizeLast=0;collapsible=1;marginBottom=0;whiteSpace=wrap;html=1;" vertex="1" parent="WIyWlLk6GJQsqaUBKTNV-1">
          <mxGeometry x="2570" y="-2290" width="223.82" height="104" as="geometry" />
        </mxCell>
        <mxCell id="ob4mdXJooFX8vDK0r2w0-4" value="+ GetInput_Rotation(): short" style="text;strokeColor=none;fillColor=none;align=left;verticalAlign=top;spacingLeft=4;spacingRight=4;overflow=hidden;rotatable=0;points=[[0,0.5],[1,0.5]];portConstraint=eastwest;whiteSpace=wrap;html=1;" vertex="1" parent="ob4mdXJooFX8vDK0r2w0-3">
          <mxGeometry y="26" width="223.82" height="26" as="geometry" />
        </mxCell>
        <mxCell id="ob4mdXJooFX8vDK0r2w0-8" value="+ GetInput_Movement(): short" style="text;strokeColor=none;fillColor=none;align=left;verticalAlign=top;spacingLeft=4;spacingRight=4;overflow=hidden;rotatable=0;points=[[0,0.5],[1,0.5]];portConstraint=eastwest;whiteSpace=wrap;html=1;" vertex="1" parent="ob4mdXJooFX8vDK0r2w0-3">
          <mxGeometry y="52" width="223.82" height="26" as="geometry" />
        </mxCell>
        <mxCell id="ob4mdXJooFX8vDK0r2w0-9" value="+ GetInput_Shooting(): bool" style="text;strokeColor=none;fillColor=none;align=left;verticalAlign=top;spacingLeft=4;spacingRight=4;overflow=hidden;rotatable=0;points=[[0,0.5],[1,0.5]];portConstraint=eastwest;whiteSpace=wrap;html=1;" vertex="1" parent="ob4mdXJooFX8vDK0r2w0-3">
          <mxGeometry y="78" width="223.82" height="26" as="geometry" />
        </mxCell>
        <mxCell id="ob4mdXJooFX8vDK0r2w0-10" value="Extends" style="endArrow=block;endSize=16;endFill=0;html=1;rounded=0;exitX=0.5;exitY=0;exitDx=0;exitDy=0;entryX=0.5;entryY=1;entryDx=0;entryDy=0;" edge="1" parent="WIyWlLk6GJQsqaUBKTNV-1" source="ob4mdXJooFX8vDK0r2w0-3" target="ob4mdXJooFX8vDK0r2w0-11">
          <mxGeometry width="160" relative="1" as="geometry">
            <mxPoint x="2681.54" y="-2328.5" as="sourcePoint" />
            <mxPoint x="2682" y="-2400" as="targetPoint" />
          </mxGeometry>
        </mxCell>
        <mxCell id="ob4mdXJooFX8vDK0r2w0-11" value="Component_InputReader" style="rounded=0;whiteSpace=wrap;html=1;" vertex="1" parent="WIyWlLk6GJQsqaUBKTNV-1">
          <mxGeometry x="2601.91" y="-2418" width="160" height="40" as="geometry" />
        </mxCell>
        <mxCell id="ob4mdXJooFX8vDK0r2w0-12" value="Component_PlayerController" style="swimlane;fontStyle=1;align=center;verticalAlign=top;childLayout=stackLayout;horizontal=1;startSize=26;horizontalStack=0;resizeParent=1;resizeParentMax=0;resizeLast=0;collapsible=1;marginBottom=0;whiteSpace=wrap;html=1;" vertex="1" parent="WIyWlLk6GJQsqaUBKTNV-1">
          <mxGeometry x="2930" y="-2290" width="220" height="190" as="geometry" />
        </mxCell>
        <mxCell id="ob4mdXJooFX8vDK0r2w0-13" value="- reload_time: float" style="text;strokeColor=none;fillColor=none;align=left;verticalAlign=top;spacingLeft=4;spacingRight=4;overflow=hidden;rotatable=0;points=[[0,0.5],[1,0.5]];portConstraint=eastwest;whiteSpace=wrap;html=1;" vertex="1" parent="ob4mdXJooFX8vDK0r2w0-12">
          <mxGeometry y="26" width="220" height="26" as="geometry" />
        </mxCell>
        <mxCell id="ob4mdXJooFX8vDK0r2w0-28" value="+ movement_speed: float" style="text;strokeColor=none;fillColor=none;align=left;verticalAlign=top;spacingLeft=4;spacingRight=4;overflow=hidden;rotatable=0;points=[[0,0.5],[1,0.5]];portConstraint=eastwest;whiteSpace=wrap;html=1;" vertex="1" parent="ob4mdXJooFX8vDK0r2w0-12">
          <mxGeometry y="52" width="220" height="26" as="geometry" />
        </mxCell>
        <mxCell id="ob4mdXJooFX8vDK0r2w0-29" value="+ rotation_speed: float" style="text;strokeColor=none;fillColor=none;align=left;verticalAlign=top;spacingLeft=4;spacingRight=4;overflow=hidden;rotatable=0;points=[[0,0.5],[1,0.5]];portConstraint=eastwest;whiteSpace=wrap;html=1;" vertex="1" parent="ob4mdXJooFX8vDK0r2w0-12">
          <mxGeometry y="78" width="220" height="26" as="geometry" />
        </mxCell>
        <mxCell id="ob4mdXJooFX8vDK0r2w0-30" value="+ reload_speed: float" style="text;strokeColor=none;fillColor=none;align=left;verticalAlign=top;spacingLeft=4;spacingRight=4;overflow=hidden;rotatable=0;points=[[0,0.5],[1,0.5]];portConstraint=eastwest;whiteSpace=wrap;html=1;" vertex="1" parent="ob4mdXJooFX8vDK0r2w0-12">
          <mxGeometry y="104" width="220" height="26" as="geometry" />
        </mxCell>
        <mxCell id="ob4mdXJooFX8vDK0r2w0-14" value="" style="line;strokeWidth=1;fillColor=none;align=left;verticalAlign=middle;spacingTop=-1;spacingLeft=3;spacingRight=3;rotatable=0;labelPosition=right;points=[];portConstraint=eastwest;strokeColor=inherit;" vertex="1" parent="ob4mdXJooFX8vDK0r2w0-12">
          <mxGeometry y="130" width="220" height="8" as="geometry" />
        </mxCell>
        <mxCell id="ob4mdXJooFX8vDK0r2w0-15" value="+ { override } Start(): void" style="text;strokeColor=none;fillColor=none;align=left;verticalAlign=top;spacingLeft=4;spacingRight=4;overflow=hidden;rotatable=0;points=[[0,0.5],[1,0.5]];portConstraint=eastwest;whiteSpace=wrap;html=1;" vertex="1" parent="ob4mdXJooFX8vDK0r2w0-12">
          <mxGeometry y="138" width="220" height="26" as="geometry" />
        </mxCell>
        <mxCell id="ob4mdXJooFX8vDK0r2w0-16" value="+ { override } Update(): void" style="text;strokeColor=none;fillColor=none;align=left;verticalAlign=top;spacingLeft=4;spacingRight=4;overflow=hidden;rotatable=0;points=[[0,0.5],[1,0.5]];portConstraint=eastwest;whiteSpace=wrap;html=1;" vertex="1" parent="ob4mdXJooFX8vDK0r2w0-12">
          <mxGeometry y="164" width="220" height="26" as="geometry" />
        </mxCell>
        <mxCell id="ob4mdXJooFX8vDK0r2w0-31" value="Component_PlayerBulletController" style="swimlane;fontStyle=1;align=center;verticalAlign=top;childLayout=stackLayout;horizontal=1;startSize=26;horizontalStack=0;resizeParent=1;resizeParentMax=0;resizeLast=0;collapsible=1;marginBottom=0;whiteSpace=wrap;html=1;" vertex="1" parent="WIyWlLk6GJQsqaUBKTNV-1">
          <mxGeometry x="3280" y="-2290" width="270" height="138" as="geometry" />
        </mxCell>
        <mxCell id="ob4mdXJooFX8vDK0r2w0-35" value="+ speed: float" style="text;strokeColor=none;fillColor=none;align=left;verticalAlign=top;spacingLeft=4;spacingRight=4;overflow=hidden;rotatable=0;points=[[0,0.5],[1,0.5]];portConstraint=eastwest;whiteSpace=wrap;html=1;" vertex="1" parent="ob4mdXJooFX8vDK0r2w0-31">
          <mxGeometry y="26" width="270" height="26" as="geometry" />
        </mxCell>
        <mxCell id="ob4mdXJooFX8vDK0r2w0-39" value="+ direction: Vector2D" style="text;strokeColor=none;fillColor=none;align=left;verticalAlign=top;spacingLeft=4;spacingRight=4;overflow=hidden;rotatable=0;points=[[0,0.5],[1,0.5]];portConstraint=eastwest;whiteSpace=wrap;html=1;" vertex="1" parent="ob4mdXJooFX8vDK0r2w0-31">
          <mxGeometry y="52" width="270" height="26" as="geometry" />
        </mxCell>
        <mxCell id="ob4mdXJooFX8vDK0r2w0-36" value="" style="line;strokeWidth=1;fillColor=none;align=left;verticalAlign=middle;spacingTop=-1;spacingLeft=3;spacingRight=3;rotatable=0;labelPosition=right;points=[];portConstraint=eastwest;strokeColor=inherit;" vertex="1" parent="ob4mdXJooFX8vDK0r2w0-31">
          <mxGeometry y="78" width="270" height="8" as="geometry" />
        </mxCell>
        <mxCell id="ob4mdXJooFX8vDK0r2w0-37" value="+ { override } Startable(): bool" style="text;strokeColor=none;fillColor=none;align=left;verticalAlign=top;spacingLeft=4;spacingRight=4;overflow=hidden;rotatable=0;points=[[0,0.5],[1,0.5]];portConstraint=eastwest;whiteSpace=wrap;html=1;" vertex="1" parent="ob4mdXJooFX8vDK0r2w0-31">
          <mxGeometry y="86" width="270" height="26" as="geometry" />
        </mxCell>
        <mxCell id="ob4mdXJooFX8vDK0r2w0-38" value="+ { override } Update(): void" style="text;strokeColor=none;fillColor=none;align=left;verticalAlign=top;spacingLeft=4;spacingRight=4;overflow=hidden;rotatable=0;points=[[0,0.5],[1,0.5]];portConstraint=eastwest;whiteSpace=wrap;html=1;" vertex="1" parent="ob4mdXJooFX8vDK0r2w0-31">
          <mxGeometry y="112" width="270" height="26" as="geometry" />
        </mxCell>
        <mxCell id="ob4mdXJooFX8vDK0r2w0-40" value="Extends" style="rounded=1;whiteSpace=wrap;html=1;" vertex="1" parent="WIyWlLk6GJQsqaUBKTNV-1">
          <mxGeometry x="3382.5" y="-2413" width="65" height="30" as="geometry" />
        </mxCell>
        <mxCell id="ob4mdXJooFX8vDK0r2w0-41" value="&lt;i&gt;Component&lt;/i&gt;" style="html=1;whiteSpace=wrap;" vertex="1" parent="WIyWlLk6GJQsqaUBKTNV-1">
          <mxGeometry x="3365" y="-2520" width="100" height="40" as="geometry" />
        </mxCell>
        <mxCell id="ob4mdXJooFX8vDK0r2w0-42" value="" style="endArrow=block;endSize=16;endFill=0;html=1;rounded=0;entryX=0.5;entryY=1;entryDx=0;entryDy=0;exitX=0.5;exitY=0;exitDx=0;exitDy=0;" edge="1" parent="WIyWlLk6GJQsqaUBKTNV-1" source="ob4mdXJooFX8vDK0r2w0-40" target="ob4mdXJooFX8vDK0r2w0-41">
          <mxGeometry width="160" relative="1" as="geometry">
            <mxPoint x="3280" y="-2420" as="sourcePoint" />
            <mxPoint x="3280" y="-2500" as="targetPoint" />
          </mxGeometry>
        </mxCell>
        <mxCell id="ob4mdXJooFX8vDK0r2w0-43" value="" style="endArrow=none;html=1;rounded=0;entryX=0.5;entryY=1;entryDx=0;entryDy=0;exitX=0.5;exitY=0;exitDx=0;exitDy=0;" edge="1" parent="WIyWlLk6GJQsqaUBKTNV-1" source="ob4mdXJooFX8vDK0r2w0-31" target="ob4mdXJooFX8vDK0r2w0-40">
          <mxGeometry width="50" height="50" relative="1" as="geometry">
            <mxPoint x="3200" y="-2390" as="sourcePoint" />
            <mxPoint x="3200" y="-2470" as="targetPoint" />
          </mxGeometry>
        </mxCell>
        <mxCell id="ob4mdXJooFX8vDK0r2w0-44" value="" style="endArrow=none;html=1;rounded=0;entryX=0;entryY=0.5;entryDx=0;entryDy=0;exitX=0.5;exitY=0;exitDx=0;exitDy=0;" edge="1" parent="WIyWlLk6GJQsqaUBKTNV-1" source="ob4mdXJooFX8vDK0r2w0-12" target="ob4mdXJooFX8vDK0r2w0-40">
          <mxGeometry width="50" height="50" relative="1" as="geometry">
            <mxPoint x="3425" y="-2280" as="sourcePoint" />
            <mxPoint x="3425" y="-2373" as="targetPoint" />
            <Array as="points">
              <mxPoint x="3040" y="-2400" />
            </Array>
          </mxGeometry>
        </mxCell>
      </root>
    </mxGraphModel>
  </diagram>
</mxfile>
